<svg xmlns="http://www.w3.org/2000/svg" height="183.6" width="1122.5" xml:space="preserve"><defs><clipPath id="a" clipPathUnits="userSpaceOnUse"><path d="M0 137.7h841.9V0H0Z"/></clipPath></defs><g clip-path="url(#a)" transform="matrix(1.33333 0 0 -1.33333 0 183.6)"><path style="fill:#e41f25;fill-opacity:1;fill-rule:evenodd;stroke:none" d="M0 0h269a20.5 20.5 0 0 0 0-41H0A20.5 20.5 0 1 0 0 0" transform="translate(508.4 54.7)"/><path style="fill:#fff;fill-opacity:1;fill-rule:nonzero;stroke:none" d="M0 0a3 3 0 0 0 .8.3 7 7 0 0 0 2.8.1 9 9 0 0 0 3-.8l1.6-.9.6 3.9a14.7 14.7 0 0 1-7.2 1.6C.7 4.2-.1 4.1-1 4a9 9 0 0 1-3.7-1.8c-.5-.4-1-.9-1.3-1.4l-.7-1.3c-.1-.5-.2-1-.1-1.3v-1a2.7 2.7 0 0 1 .9-1.4l.3-.3.5-.2.8-.3a10.7 10.7 0 0 1 1.9-.4l1.7-.2a8.7 8.7 0 0 0 1.5-.4 1.2 1.2 0 0 0 .6-.5c0-.2.1-.3 0-.4V-7a1 1 0 0 0-.2-.4L1-7.7.8-8 .4-8l-.7-.2-1.4-.2a24.7 24.7 0 0 0-3.3 0 15.1 15.1 0 0 0-2.1.6l-.8-4a25.4 25.4 0 0 1 6.4-.8A17.3 17.3 0 0 1 5-11l1 .6a6 6 0 0 1 1.7 2l.5 1.1A3.7 3.7 0 0 1 8.3-6c0 .4 0 .7-.3 1a3.6 3.6 0 0 1-.9 1.2 4.7 4.7 0 0 1-1.3.8 23 23 0 0 1-3.7.8l-1 .2a8.2 8.2 0 0 0-1 .2H0a1.2 1.2 0 0 0-.2.3l-.1.1a1 1 0 0 0-.2.6l.4.7.2.1" transform="translate(595 36.4)"/><path style="fill:#fff;fill-opacity:1;fill-rule:nonzero;stroke:none" d="M0 0a6.4 6.4 0 0 0-2.5.3 1.7 1.7 0 0 0-.4.2l-.1.1-.1.2-.1.2v.5l1 6.3h4.7l.9 4.1-4.5.1.9 3.6h-3.5a10.8 10.8 0 0 0-6.3-3.7l-.7-4h2.2L-10 .7l-.2-1.1a2.6 2.6 0 0 1 .3-1.3l.3-.4.5-.6a7.8 7.8 0 0 1 2-1.1l1.3-.4a14.1 14.1 0 0 1 3.4-.1 10.8 10.8 0 0 1 3 .8L1.2.2A6.5 6.5 0 0 0 0 0" transform="translate(614.7 28.5)"/><path style="fill:#fff;fill-opacity:1;fill-rule:nonzero;stroke:none" d="M0 0h-5.2l6.8 8.2Zm-3 11L-13.3 0h-4L-20.8-4h3.8l-4.2-4.4h8.9L-8.7-4h7.9l-.8-4.4h7.4l3.6 19.6z" transform="translate(525 33)"/><path style="fill:#fff;fill-opacity:1;fill-rule:nonzero;stroke:none" d="m0 0 1 4.6a9 9 0 0 1-2.2 0 6.5 6.5 0 0 1-3.3-1.2C-5 3-5.4 2.4-5.7 2l.5 2.3h-5.9l-3-15.8h6.5L-6-3.7c0 .3.2.6.4 1l.6.8c.2.3.5.5.9.7l1.1.6A8 8 0 0 0 0 0" transform="translate(631 36)"/><path style="fill:#fff;fill-opacity:1;fill-rule:nonzero;stroke:none" d="m0 0-.2-1-.7-1.6a3.7 3.7 0 0 0-1.2-1 5.8 5.8 0 0 0-1.4-.8 4 4 0 0 0-1.2-.2 4.8 4.8 0 0 0-1.2.2 4.3 4.3 0 0 0-1.3.7l-.4.4-.2.3-.1.4v.9a4.4 4.4 0 0 0 2 4 4.6 4.6 0 0 0 1.8.7 4.8 4.8 0 0 0 1 .1 4.8 4.8 0 0 0 1.7-.3 3 3 0 0 0 1-.7 2 2 0 0 0 .5-1V.8L0 0m6.3 0 .2 1.7a5.1 5.1 0 0 1-1 3.2 5 5 0 0 1-1.7 1.7l-.9.4a14.5 14.5 0 0 1-4.3 1 16.5 16.5 0 0 1-7.4-1.3 10.4 10.4 0 0 1-3.8-3.2l-.7-1.4a13 13 0 0 1-.8-5c0-.3 0-.7.2-1l.5-1.6a4.6 4.6 0 0 1 1.7-2l.9-.6 1.2-.4 1.8-.3a28 28 0 0 1 6.7.3 9.6 9.6 0 0 1 2.5 1L3-6.3a13.8 13.8 0 0 1 3 4.8L6.3 0" transform="translate(581.2 33)"/><path style="fill:#fff;fill-opacity:1;fill-rule:nonzero;stroke:none" d="M0 0a2.6 2.6 0 0 0-.7-1.3 3.1 3.1 0 0 0-1.9-1 4.4 4.4 0 0 0-1.7.1l-.4.1a1.5 1.5 0 0 0-.5.5 1.2 1.2 0 0 0-.2.4 1.4 1.4 0 0 0 0 .5l1.8 9.9h-6.6l-2.1-10.8a5 5 0 0 1-.1-1.4 3.9 3.9 0 0 1 1.6-2.7l.9-.6 1.3-.4A10.8 10.8 0 0 1-6-7l1.2.2A8.4 8.4 0 0 1 0-3.5l-.7-3.2h6.3L8.4 9.3H1.8Z" transform="translate(545.7 31.1)"/><path style="fill:#fff;fill-opacity:1;fill-rule:nonzero;stroke:none" d="M0 0a7.7 7.7 0 0 0-1.4.2 3 3 0 0 0-.6.2 1.6 1.6 0 0 0-.3.3 1 1 0 0 0-.2.4v.6l1 6.3h4.9l.8 4H-.2l.6 3.7h-3.2A11 11 0 0 0-9 11.9l-.8-4 2 .1L-9.2.3v-.7A2.7 2.7 0 0 1-8.8-2l.6-.7.9-.6A6.9 6.9 0 0 1-4.7-4a11 11 0 0 1 6 .8L2.1.4.7 0H0" transform="translate(564 28.3)"/><path style="fill:#fff;fill-opacity:1;fill-rule:nonzero;stroke:none" d="m0 0-3.8-19.7h7.2L6.9 0z" transform="translate(692.2 44.2)"/><path style="fill:#fff;fill-opacity:1;fill-rule:nonzero;stroke:none" d="M0 0a3.1 3.1 0 0 0 .8 1l.6.5A4.3 4.3 0 0 0 3 2l1 .1h1l.7-.2A3.3 3.3 0 0 0 6.8 1l.5-.5.2-.6Zm12 3.4a5 5 0 0 1-1.6 1.7l-1 .5-1.2.5-1.7.4a17.5 17.5 0 0 1-5.8-.3c-1-.2-2-.6-2.8-1-.8-.4-1.5-.9-2.2-1.6-.7-.7-1.4-1.7-2-2.5-.4-1-.8-1.7-1-2.5a7.1 7.1 0 0 1 2.8-7.5l1.7-1 2.1-.5c.9-.1 1.8-.2 2.8-.1 1 0 2 .2 3 .4a12.3 12.3 0 0 1 5 2.4l.4 3.2a12.8 12.8 0 0 0-5.1-2 10 10 0 0 0-3.6.2 5.5 5.5 0 0 0-1.3.6 3.4 3.4 0 0 0-.8.8l-.3.4-.1.6h12c.5.8 1 1.6 1.1 2.3.3.7.3 1.2.3 1.9l-.3 2a6 6 0 0 1-.5 1.1" transform="translate(705.2 34.6)"/><path style="fill:#fff;fill-opacity:1;fill-rule:nonzero;stroke:none" d="M0 0a5 5 0 0 0-1.2-1.5 4.5 4.5 0 0 0-1.6-.9 4 4 0 0 0-2 0 3.2 3.2 0 0 0-.5.3h-.2l-.1.2-.1.1-.1.2V-.5a1.4 1.4 0 0 0 .7.6l.5.2 1 .3A115 115 0 0 1 .5 1.7C.5 1.1.3.6 0 0m7.4 7a2.4 2.4 0 0 1-.9 2A5.6 5.6 0 0 1 5 10a13.9 13.9 0 0 1-5 1.2 19.3 19.3 0 0 1-5.4-.4l-3-.8-.5-4.2a35.4 35.4 0 0 0 6 1h1.5A10.4 10.4 0 0 0 0 6.3a1.8 1.8 0 0 0 .5-.2L.7 6a1.1 1.1 0 0 0 .2-.3V5l-.3-.3c-.1 0-.2 0-.3-.2L0 4.2l-1-.3-1.8-.3a72.3 72.3 0 0 0-5-.7 11 11 0 0 1-2.5-1 5.7 5.7 0 0 1-1.3-1 3.3 3.3 0 0 1-.6-1.2 4 4 0 0 1-.2-1.8l.3-1a3.5 3.5 0 0 1 1-1.3l.7-.5 1-.5 1.2-.3a11.3 11.3 0 0 1 3.2 0A10 10 0 0 1-.3-3.1l-.3-2.4h5.9l2 12v.7" transform="translate(681.5 30)"/><path style="fill:#fff;fill-opacity:1;fill-rule:nonzero;stroke:none" d="M0 0a3.8 3.8 0 0 0-1.2-1.8l-.7-.6a4.1 4.1 0 0 0-1.7-.7 10.8 10.8 0 0 0-1.3 0 2 2 0 0 0-1 .4l-.3.3-.1.4v.5l.1.3.3.4s.2 0 .3.2l.4.2a6.9 6.9 0 0 0 1.4.4l.7.1A12.1 12.1 0 0 1-.8.7l1 .4L0 0m7.3 6a3.5 3.5 0 0 1-1 2.2 4.5 4.5 0 0 1-1.4 1 9.1 9.1 0 0 1-2.7.9 25 25 0 0 1-10.4-.6L-9 5.3a26 26 0 0 0 4.8.8h1.6a12 12 0 0 0 2-.3 3.2 3.2 0 0 0 .6-.3l.2-.1A1.2 1.2 0 0 0 .5 5l.1-.2v-.7a1 1 0 0 0-.4-.5L0 3.6l-.3-.2-.6-.1-1-.2a175.3 175.3 0 0 1-6.8-1A7.4 7.4 0 0 1-12 .4a4.1 4.1 0 0 1-1-2.6c0-.4.2-.9.4-1.3a4.9 4.9 0 0 1 1.7-1.8 5.8 5.8 0 0 1 2.4-1 7.7 7.7 0 0 1 2.2 0 9.5 9.5 0 0 1 2.7.6 8.7 8.7 0 0 1 2.2 1.2l.8.7-.4-2.4h6L7.1 5v1" transform="translate(641.4 30.8)"/><path style="fill:#fff;fill-opacity:1;fill-rule:nonzero;stroke:none" d="m0 0-.5-1-.7-.8-.9-.7a5 5 0 0 0-1.8-.7 4.8 4.8 0 0 0-2 .3 3.3 3.3 0 0 0-1 .7 2.6 2.6 0 0 0-.8 1.4v.5l.2.8c0 .4.2.8.3 1.1a3.6 3.6 0 0 0 2 2 5 5 0 0 0 2 .4h1A3.8 3.8 0 0 0-1 3.3 2.4 2.4 0 0 0-.4 3l.3-.4L0 2V1L0 0m1.6 12.3L.4 6.4c0 .3-.2.5-.3.7A3.2 3.2 0 0 1-1 8a4.2 4.2 0 0 1-1.1.5l-1 .2a14 14 0 0 1-4.3-.2 9 9 0 0 1-6-4.6c-.3-.7-.7-1.6-.9-2.5a8.2 8.2 0 0 1 1-6.4 5 5 0 0 1 2.8-2c.3-.2.7-.3 1.1-.3a13.4 13.4 0 0 1 4 0 8.3 8.3 0 0 1 4.1 2.1l-.3-2.2h6.3l3.8 19.7z" transform="translate(662.7 31.9)"/><path style="fill:#fff;fill-opacity:1;fill-rule:nonzero;stroke:none" d="M0 0a14.3 14.3 0 0 0-7.2-2.3v-4c.9 0 3.5.3 4.6.7l-2.5-13.6h6L4.4 0Z" transform="translate(729.2 44)"/><path style="fill:#fff;fill-opacity:1;fill-rule:nonzero;stroke:none" d="M0 0c-.5-.5-1.2-.7-1.6-.7-1 0-1.6.6-1.6 2 0 1.8.7 3 2 3 1 0 1.3-1 1.3-2.3L0 0m-1 7.9c-4 0-8.4-2.1-8.4-7.5 0-3.1 2.5-4.6 5.2-4.6a6 6 0 0 1 3.8 1C-1-6.7-2.3-8.3-3.7-8.3c-1.6 0-1.8 1.2-1.8 2.3L-11-7.3c.3-3.4 3.2-4.7 7-4.7C3.6-12 6-6.2 6 .8c0 4.2-2 7-7 7" transform="translate(744 36.5)"/><path style="fill:#fff;fill-opacity:1;fill-rule:nonzero;stroke:none" d="M0 0c5.6 4.7 6.9 6.3 6.9 9 0 2.6-2 4.6-6.7 4.6-4.2 0-7.6-1.4-8.4-5.5l5.5-.7c.5 1.7 1 2.5 2.2 2.5.7 0 1.1-.5 1.1-1.3 0-1.4-1.4-2.6-4.9-6l-5-4.6-.7-4H4.5l.8 4h-7.6z" transform="translate(759.3 30.8)"/><path style="fill:#fff;fill-opacity:1;fill-rule:nonzero;stroke:none" d="M0 0h-4.1l5.3 7Zm5.8 0 2 11.3H0L-9.2-.5l-.7-3.4h9.2l-.8-4h5.9L5-4h2.3L8 0Z" transform="translate(773.8 32.7)"/><path style="fill:#ffffff;fill-opacity:1;fill-rule:evenodd;stroke:none" d="m0 0-13.4.1 17.6 21Zm-4.3 32.4L-33.9.1h-10.2l-9.3-10.6h9.6l-10.6-11.3 22.7.1 9.4 11.2h20.2l-2-11.3h19l10 54.2z" transform="translate(98.4 91.7)"/><path style="fill:#ffffff;fill-opacity:1;fill-rule:nonzero;stroke:none" d="M0 0c5.9 0 6.6-2.7 5.9-6.3-.7-3.6-3-6.4-8.4-6.4-5.6 0-6.7 2.8-6 6.4C-7.9-2.7-6 0 0 0m-17.3-54.2 7.1 37H3.6l-7.2-37z" transform="translate(135.1 124.1)"/><path style="fill:#ffffff;fill-opacity:1;fill-rule:nonzero;stroke:none" d="M0 0c-2.3 0-4.4-.8-5.7-1.6l-3-15.6c1.2-.8 3-1.3 4.5-1.3 5 0 8.8 4.7 9.7 9.3C6.5-4.2 4.3 0 0 0m-2.1-28.4a13 13 0 0 0-8.3 2.7l-3.3-17.1h-13.9l10.2 52.2h11.7V5.6C-2 9 2 10.4 5.7 10.4c4.8 0 16.2-3.5 13-19.8A22.4 22.4 0 0 0-2.1-28.4" transform="translate(194.2 97.5)"/><path style="fill:#ffffff;fill-opacity:1;fill-rule:nonzero;stroke:none" d="M0 0c2.9 0 4.7 2.4 5.2 5 .5 2.8-.8 4.8-3.3 4.8h-6.6L-6.6 0Zm-8.5-10.2-2-9.8h8.7c2.4 0 4.6 1.8 5.2 4.7.7 3.8-1.4 5.1-3.2 5.1zm19.9 6.4c5.6-1 7.8-6.4 6.8-11.7-2-11.1-10.7-15.9-22-15.9h-23.5l10.1 52.6H7.1c5.2 0 15.3-2.9 12.9-15.5-.5-2.6-3-8.1-8.6-9.5" transform="translate(369.6 101.3)"/><path style="fill:#ffffff;fill-opacity:1;fill-rule:nonzero;stroke:none" d="m0 0-.5-3h24.2l-2.2-11.5h-38.6l2 12 8 40.6h38.7l-2.2-11.5H5.2l-1.6-8.4h22L23.5 6.9h-22Z" transform="translate(505 84.4)"/><path style="fill:#ffffff;fill-opacity:1;fill-rule:nonzero;stroke:none" d="m0 0 17.2 18.6L7.4 37h16L27 27l7.7 10h16l-17-18.4L43.7 0h-16l-3.9 10.3L16 0Z" transform="translate(527.9 70)"/><path style="fill:#ffffff;fill-opacity:1;fill-rule:nonzero;stroke:none" d="M0 0c-2.3 0-4.4-.8-5.7-1.6l-3-15.6c1.2-.8 3-1.3 4.5-1.3 5 0 8.8 4.7 9.7 9.3C6.5-4.2 4.3 0 0 0m-2.1-28.4a13 13 0 0 0-8.3 2.7l-3.3-17.1h-13.9l10.2 52.2h11.7V5.6C-2 9 2 10.4 5.7 10.4c4.8 0 16.2-3.5 13-19.8A22.4 22.4 0 0 0-2.1-28.4" transform="translate(599 97.5)"/><path style="fill:#ffffff;fill-opacity:1;fill-rule:evenodd;stroke:none" d="m0 0 7 36.6h13.6l-1.1-5.4a12.2 12.2 0 0 0 6.2 5.3c1.2.5 2.6.9 4.1 1 1.6.2 3.3.1 5-.1l-2.1-10.7a21.4 21.4 0 0 1-7.1-1.2 14.3 14.3 0 0 1-4.8-3 9 9 0 0 1-2.2-4.2L15.2-.1Z" transform="translate(138 70)"/><path style="fill:#ffffff;fill-opacity:1;fill-rule:evenodd;stroke:none" d="m0 0 7 36.6h13.6l-1.1-5.4a12.2 12.2 0 0 0 6.2 5.3c1.2.5 2.6.9 4.1 1 1.6.2 3.3.1 5-.1l-2.1-10.7a21.4 21.4 0 0 1-7.1-1.2 14.3 14.3 0 0 1-4.8-3 9 9 0 0 1-2.2-4.2L15.2-.1Z" transform="translate(262.9 70)"/><path style="fill:#ffffff;fill-opacity:1;fill-rule:evenodd;stroke:none" d="m0 0 7 36.6h13.6l-1.1-5.4a12.2 12.2 0 0 0 6.2 5.3c1.2.5 2.6.9 4.1 1 1.6.2 3.3.1 5-.1l-2.1-10.7a21.4 21.4 0 0 1-7.1-1.2 14.3 14.3 0 0 1-4.8-3 9 9 0 0 1-2.2-4.2L15.2-.1Z" transform="translate(618.3 70)"/><path style="fill:#ffffff;fill-opacity:1;fill-rule:evenodd;stroke:none" d="m0 0-10.1.1 1.4 8.4h-7.5A25.7 25.7 0 0 0-30.4-.4l-2-9 4.7.1L-31-27v-1.8c0-.6.1-1.2.3-1.7a8.8 8.8 0 0 1 2.3-3.2l2-1.4a16.3 16.3 0 0 1 6-2 25.4 25.4 0 0 1 13.8 1.8l1.8 8.4c-1-.5-2-.7-3.1-.8h-1.7a18.1 18.1 0 0 0-3.2.3 6.7 6.7 0 0 0-1.4.6l-.4.3a2.3 2.3 0 0 0-.6.8l-.2.5a3 3 0 0 0 0 1.3l2.3 14.6 11.3.1z" transform="translate(330.3 107.4)"/><path style="fill:#ffffff;fill-opacity:1;fill-rule:evenodd;stroke:none" d="m0 0-.2-1.7-.5-2.5c-.5-1.2-1-2.5-1.7-3.5l-1.3-1.5-1.3-1A13.6 13.6 0 0 0-8.3-12a9 9 0 0 0-2.8-.4 11 11 0 0 0-2.9.4 10 10 0 0 0-3 1.5l-1 1-.3.6a4 4 0 0 0-.3 1.2c-.1.5-.2 1.2-.1 2a10.7 10.7 0 0 0 .6 3.7 13.3 13.3 0 0 0 1.6 3l1 1a16.5 16.5 0 0 0 2.9 2.2 12 12 0 0 0 7.3 1c.7-.1 1.3-.3 1.8-.6a7 7 0 0 0 2.3-1.6A4.8 4.8 0 0 0-.1 1L0 0m14.6 5c-.2.7-.3 1.3-.7 2a11.7 11.7 0 0 1-7.5 7.4 33.4 33.4 0 0 1-9.8 2.2 37.8 37.8 0 0 1-17.1-2.8 24.5 24.5 0 0 1-8.8-7.4L-31.1 3a30.4 30.4 0 0 1-1.8-11.4c0-1 .2-1.7.4-2.5.3-1.3.7-2.6 1.2-3.6a10.8 10.8 0 0 1 4-4.9l2-1.1 2.8-1a65 65 0 0 1 16-.8 31 31 0 0 1 6.7 1.7 20.6 20.6 0 0 1 6.3 4.2 31.9 31.9 0 0 1 7 11 25.3 25.3 0 0 1 1 10.3" transform="translate(249.5 92.4)"/><path style="fill:#ffffff;fill-opacity:1;fill-rule:evenodd;stroke:none" d="m0 0-1.8-9.2A58.8 58.8 0 0 1 13-10.9a39.8 39.8 0 0 1 14.7 3.3 14.2 14.2 0 0 1 6.3 6.2c.5.8 1 1.7 1.2 2.5a8.5 8.5 0 0 1 .5 3.3c0 .8-.3 1.6-.7 2.4A8.6 8.6 0 0 1 33 9.3a11.1 11.1 0 0 1-3.1 2l-3 1a53.4 53.4 0 0 1-9.4 1.4 4.7 4.7 0 0 0-1.2.4 2.7 2.7 0 0 0-.6.5l-.2.4a2.3 2.3 0 0 0-.3 1.4c0 .5.2 1 .8 1.4l.5.4a6.9 6.9 0 0 0 1.9.7 16 16 0 0 0 3.9.5 19.4 19.4 0 0 0 5.7-.8 24 24 0 0 0 7.4-3.4l1.5 9A34 34 0 0 1 20.1 28c-2 0-4-.3-5.8-.7A20.8 20.8 0 0 1 5.7 23c-1.2-1-2.2-2.1-3-3.2-.7-1.1-1.2-2.2-1.5-3.2-.3-1-.4-2-.3-3 0-.8.1-1.7.3-2.3a6.3 6.3 0 0 1 1.7-3.2l.8-.6L5 7A25.3 25.3 0 0 1 11 5.5l3.9-.6a20.1 20.1 0 0 0 3.6-.9A2.7 2.7 0 0 0 20 2.8c.1-.3.2-.6.1-.8v-.3l-.2-.3-.4-.5-.6-.6-.6-.4-.9-.3a25 25 0 0 0-5-.9 57.6 57.6 0 0 0-7.5.2A34.5 34.5 0 0 0 0 0" transform="translate(436.2 80.9)"/><path style="fill:#ffffff;fill-opacity:1;fill-rule:evenodd;stroke:none" d="m0 0-1.8-9.2A58.8 58.8 0 0 1 13-10.9a39.8 39.8 0 0 1 14.7 3.3 14.2 14.2 0 0 1 6.3 6.2c.5.8 1 1.7 1.2 2.5a8.5 8.5 0 0 1 .5 3.3c0 .8-.3 1.6-.7 2.4A8.6 8.6 0 0 1 33 9.3a11.1 11.1 0 0 1-3.1 2l-3 1a53.4 53.4 0 0 1-9.4 1.4 4.7 4.7 0 0 0-1.2.4 2.7 2.7 0 0 0-.6.5l-.2.4a2.3 2.3 0 0 0-.3 1.4c0 .5.2 1 .8 1.4l.5.4a6.9 6.9 0 0 0 1.9.7 16 16 0 0 0 3.9.5 19.4 19.4 0 0 0 5.7-.8 24 24 0 0 0 7.4-3.4l1.5 9A34 34 0 0 1 20.1 28c-2 0-4-.3-5.8-.7A20.8 20.8 0 0 1 5.7 23c-1.2-1-2.2-2.1-3-3.2-.7-1.1-1.2-2.2-1.5-3.2-.3-1-.4-2-.3-3 0-.8.1-1.7.3-2.3a6.3 6.3 0 0 1 1.7-3.2l.8-.6L5 7A25.3 25.3 0 0 1 11 5.5l3.9-.6a20.1 20.1 0 0 0 3.6-.9A2.7 2.7 0 0 0 20 2.8c.1-.3.2-.6.1-.8v-.3l-.2-.3-.4-.5-.6-.6-.6-.4-.9-.3a25 25 0 0 0-5-.9 57.6 57.6 0 0 0-7.5.2A34.5 34.5 0 0 0 0 0" transform="translate(701.4 80.9)"/><path style="fill:#ffffff;fill-opacity:1;fill-rule:evenodd;stroke:none" d="m0 0-1.8-9.2A58.8 58.8 0 0 1 13-10.9a39.8 39.8 0 0 1 14.7 3.3 14.2 14.2 0 0 1 6.3 6.2c.5.8 1 1.7 1.2 2.5a8.5 8.5 0 0 1 .5 3.3c0 .8-.3 1.6-.7 2.4A8.6 8.6 0 0 1 33 9.3a11.1 11.1 0 0 1-3.1 2l-3 1a53.4 53.4 0 0 1-9.4 1.4 4.7 4.7 0 0 0-1.2.4 2.7 2.7 0 0 0-.6.5l-.2.4a2.3 2.3 0 0 0-.3 1.4c0 .5.2 1 .8 1.4l.5.4a7 7 0 0 0 1.9.7 16 16 0 0 0 3.9.5 19.4 19.4 0 0 0 5.7-.8 24 24 0 0 0 7.4-3.4l1.5 9A34 34 0 0 1 20.1 28c-2 0-4-.3-5.8-.7A20.8 20.8 0 0 1 5.7 23c-1.2-1-2.2-2.1-3-3.2-.7-1.1-1.2-2.2-1.5-3.2-.3-1-.4-2-.3-3 0-.8.1-1.7.3-2.3a6.3 6.3 0 0 1 1.7-3.2l.8-.6L5 7A25.3 25.3 0 0 1 11 5.5l3.9-.6a20.1 20.1 0 0 0 3.6-.9A2.7 2.7 0 0 0 20 2.8c.1-.3.2-.6.1-.8v-.3l-.2-.3-.4-.5a8 8 0 0 0-.6-.6l-.6-.4-.9-.3a25 25 0 0 0-5-.9 57.6 57.6 0 0 0-7.5.2A34.5 34.5 0 0 0 0 0" transform="translate(740.9 80.9)"/><path style="fill:#ffffff;fill-opacity:1;fill-rule:evenodd;stroke:none" d="M0 0a7.3 7.3 0 0 0 3.3 3.5 10.1 10.1 0 0 0 3.5 1.2 16.5 16.5 0 0 0 4.3 0c.8 0 1.4-.2 2-.4a7.6 7.6 0 0 0 2.7-1.7c.4-.4.8-.8 1-1.2l.6-1.5zm28.8 5.1a14 14 0 0 1-2.8 5 13 13 0 0 1-4.1 3 24.5 24.5 0 0 1-6.8 2 40.8 40.8 0 0 1-13.5-.7A25.4 25.4 0 0 1-10 8.3a29.5 29.5 0 0 1-4.4-5.9c-1.2-2-2-3.8-2.4-5.6a16.5 16.5 0 0 1 6.4-17.5A21.3 21.3 0 0 1-1.5-24a34.8 34.8 0 0 1 24.8 6.2l1.1 7.5a29.7 29.7 0 0 0-12-4.7 22.8 22.8 0 0 0-8.3.6A12.8 12.8 0 0 0 1-13a7.9 7.9 0 0 0-1.8 1.7l-.6 1-.4 1.4h28c1.1 1.8 2 3.7 2.5 5.3.5 1.6.7 2.9.6 4.3 0 1.4-.2 3-.6 4.5" transform="translate(669 94.3)"/><path style="fill:#ffffff;fill-opacity:1;fill-rule:evenodd;stroke:none" d="M0 0h-15l-4.8-24.4c-.2-1.1-.2-2.3-.1-3.3a8.8 8.8 0 0 1 5.7-7.5c.8-.4 1.7-.7 2.8-1a24.7 24.7 0 0 1 6.3-.4 18 18 0 0 1 8.4 3 20.1 20.1 0 0 1 5 4.8L6.7-36H21l6.5 36h-15L8.3-20.8a6 6 0 0 0-1.7-3 7.1 7.1 0 0 0-4.2-2.2 9.9 9.9 0 0 0-4 .3l-.7.2A3.3 3.3 0 0 0-4-24.2l-.1.5a3.4 3.4 0 0 0 0 1.3z" transform="translate(408.7 106)"/></g></svg>