<?xml version="1.0" encoding="UTF-8"?>
<svg id="Livello_1" data-name="Livello 1" xmlns="http://www.w3.org/2000/svg" viewBox="0 0 841.89 247.71">
  <defs>
    <style>
      .cls-1, .cls-2 {
        fill-rule: evenodd;
      }

      .cls-1, .cls-2, .cls-3, .cls-4 {
        stroke-width: 0px;
      }

      .cls-1, .cls-4 {
        fill: #fff;
      }

      .cls-2 {
        fill: #312783;
      }

      .cls-3 {
        fill: #e30613;
      }
    </style>
  </defs>
  <rect class="cls-3" x="559.11" y="45.44" width="234.17" height="62.14" rx="25.58" ry="25.58"/>
  <g>
    <path class="cls-1" d="m590.48,66.46l6.43-7.71-1.53,7.76-4.9-.05m-15.02,8.02l3.88-4.11h-3.5l3.39-3.87,3.74-.04,9.51-10.38,11.73-.05-3.37,18.45h-6.99l.76-4.11h-7.4l-3.43,4.09-8.32.03m104.12-18.45l-3.25.04c-.49.59-1.05,1.12-1.64,1.57-.6.45-1.23.82-1.94,1.13-.72.32-1.52.58-2.35.77l-.66,3.81h2.07l-1.46,6.61c-.09.38-.14.77-.15,1.07,0,.3.02.52.06.69.04.18.1.33.17.47.07.14.16.28.29.44.12.15.28.33.53.53.24.2.58.43.89.61.31.18.6.32.94.45.34.13.74.24,1.24.33.5.09,1.1.15,1.65.18.54.02,1.03,0,1.53-.05.49-.05.98-.14,1.47-.27.48-.13.96-.29,1.41-.49l.5-3.42c-.17.05-.34.09-.53.13-.18.04-.38.06-.58.08-.2.02-.41.03-.67.03-.25,0-.55-.02-.78-.05-.23-.03-.41-.06-.55-.1-.14-.04-.25-.08-.34-.11-.09-.04-.17-.08-.23-.12-.06-.04-.12-.08-.17-.12-.05-.04-.09-.08-.12-.13-.03-.04-.07-.09-.09-.14-.03-.05-.05-.11-.06-.17-.04-.13-.04-.3-.02-.47l1.03-5.97h4.4l.77-3.87-4.17-.06.81-3.38h0Zm-68.2,3.52h-6.19s-2,10.11-2,10.11c-.09.47-.11.95-.07,1.36.04.42.14.78.28,1.1.14.32.31.59.51.84.19.24.42.45.68.65.26.19.55.36.89.52.34.15.73.29,1.19.39.46.1,1.01.17,1.45.2.44.03.79.02,1.14-.02.36-.04.72-.1,1.1-.2.75-.19,1.57-.53,2.37-1.05.4-.26.79-.57,1.14-.89.35-.33.66-.69.93-1.07l-.63,3,5.88-.04,2.69-14.87-6.24-.04-1.69,8.67c-.05.24-.13.47-.25.68-.11.22-.26.41-.42.58-.16.17-.35.32-.53.44-.19.12-.39.22-.59.29-.2.07-.41.13-.64.16-.22.03-.45.04-.66.04-.21,0-.4-.02-.57-.05-.16-.03-.3-.06-.42-.09-.12-.04-.21-.08-.3-.11-.09-.04-.16-.08-.22-.12-.07-.04-.12-.09-.17-.13-.05-.04-.1-.1-.14-.15-.04-.05-.07-.11-.1-.17-.03-.06-.05-.13-.07-.2-.02-.07-.03-.15-.03-.25,0-.09.01-.2.03-.31l1.68-9.26h0Zm70.46,14.89l2.82-14.86,5.53-.04-.45,2.22c.3-.5.67-.95,1.1-1.32.42-.36.9-.63,1.42-.84.51-.21,1.07-.35,1.7-.41.63-.06,1.33-.04,2.01.07l-.87,4.34c-.52,0-1.03.03-1.52.11-.49.08-.94.21-1.36.36-.41.15-.78.34-1.1.55-.32.21-.6.43-.84.68-.24.25-.43.51-.58.8-.16.29-.27.6-.33.92l-1.38,7.45-6.16-.04h0Zm-45.93-14.86l-4.12-.04.58-3.4h-3.03c-.48.58-1.02,1.11-1.6,1.57-.58.46-1.2.84-1.9,1.17-.7.33-1.49.63-2.3.84l-.76,3.65,1.89-.03-1.35,7.24c-.04.24-.06.5-.04.74.02.24.07.47.16.69.09.22.2.44.36.66.15.21.34.43.58.63.23.2.51.4.83.58.32.18.69.35,1.08.49.39.14.82.25,1.32.32.5.07,1.08.12,1.69.11.61-.01,1.26-.09,1.93-.23.67-.14,1.35-.35,2-.62l.73-3.38c-.41.17-.84.27-1.28.31-.22.02-.44.03-.69.02-.25,0-.52-.02-.74-.05-.22-.03-.39-.07-.53-.11-.14-.04-.25-.08-.34-.12-.09-.04-.17-.08-.24-.13-.07-.04-.12-.09-.18-.13-.05-.04-.1-.09-.13-.14-.04-.05-.08-.1-.1-.16-.03-.06-.06-.12-.08-.2-.02-.07-.03-.15-.04-.24,0-.1,0-.2.02-.31l.95-5.92,4.58-.05.75-3.77h0Zm66.67,8.73c.23-.06.5-.12.77-.2.27-.08.55-.16.83-.25.28-.1.56-.19.84-.3.01.33-.03.67-.13.99-.09.32-.23.63-.42.92-.19.29-.41.56-.67.79-.24.22-.49.43-.71.58-.23.15-.42.25-.6.34-.18.08-.34.14-.49.19-.15.05-.3.08-.51.11-.21.03-.48.06-.7.07-.21,0-.37,0-.49-.02-.13-.02-.23-.04-.32-.07-.09-.03-.18-.06-.26-.1-.14-.07-.27-.16-.38-.25-.11-.09-.2-.2-.28-.31-.07-.11-.12-.22-.15-.34-.02-.07-.02-.15-.02-.22,0-.08.02-.16.05-.25.03-.09.07-.19.14-.3.07-.11.16-.23.26-.34.06-.07.14-.13.23-.2.09-.07.21-.15.42-.24.21-.09.5-.19.8-.27.14-.05.29-.09.48-.12.19-.04.43-.07.65-.1.22-.03.42-.07.65-.12h0Zm-6.1-4.76c.85-.23,1.7-.41,2.48-.53.78-.12,1.5-.18,2.08-.21.59-.03,1.06-.02,1.52.02.44.02.87.05,1.19.1.31.04.51.1.66.15.15.05.26.1.36.14.09.04.17.08.23.13.06.04.12.09.17.13.05.05.09.09.12.14.04.05.07.1.09.16.03.06.05.12.07.2.02.08.03.17.03.25,0,.08,0,.16-.01.22-.01.06-.03.12-.05.18-.06.15-.16.28-.34.42-.06.04-.12.08-.2.13-.08.04-.18.09-.31.13-.13.05-.3.1-.55.15-.25.05-.59.09-.95.13-.36.04-.76.08-1.57.17-.8.09-2.01.24-2.91.37-.89.13-1.47.25-1.92.38-.45.13-.78.26-1.09.41-.31.15-.6.31-.93.52-.33.21-.7.47-1.01.81-.31.35-.54.79-.7,1.21-.15.43-.23.84-.22,1.24.01.41.11.81.32,1.23.21.42.54.85.93,1.22.2.18.41.35.63.5.22.15.45.28.69.39.24.11.49.21.76.29.26.08.54.15.84.2.3.05.62.08.96.1.34.01.72,0,1.11-.03.39-.04.82-.1,1.25-.2.43-.1.88-.23,1.29-.38.41-.15.78-.32,1.12-.51.34-.19.66-.4.94-.62.28-.22.54-.46.77-.71l-.42,2.26h5.63s2.13-10.61,2.13-10.61c.06-.29.08-.6.07-.88-.01-.28-.06-.54-.13-.79-.07-.24-.17-.46-.3-.69-.13-.23-.3-.47-.48-.68-.18-.21-.38-.39-.59-.55-.21-.17-.44-.32-.69-.45-.26-.14-.55-.27-.93-.4-.38-.14-.85-.28-1.57-.4-.73-.12-1.71-.21-2.69-.26-.81-.05-1.62-.06-2.41-.02-.8.04-1.59.13-2.38.27-.8.14-1.61.33-2.4.57l-.67,3.98h0Zm-50.2,6.44c.21-.15.37-.28.54-.44.17-.16.34-.35.51-.61.26-.38.51-.92.67-1.41.11-.34.18-.67.21-1.01.05-.26.09-.52.1-.7,0-.19,0-.31-.02-.41-.02-.1-.04-.17-.07-.25-.08-.21-.21-.41-.4-.62-.09-.1-.21-.21-.33-.3-.18-.14-.37-.25-.59-.35-.22-.1-.47-.18-.73-.24-.27-.06-.55-.09-.84-.1-.14,0-.28,0-.44.02-.16.02-.33.04-.53.09-.2.05-.43.11-.63.18-.2.07-.37.14-.55.23-.18.09-.37.2-.58.35-.2.15-.42.33-.59.49-.17.17-.3.31-.42.47-.12.16-.24.34-.36.54-.11.2-.21.44-.29.63-.07.19-.12.35-.15.51-.03.16-.06.33-.08.5-.02.17-.02.36-.01.55,0,.29.01.59.04.8.03.21.09.34.14.45.05.11.1.19.15.26.11.15.24.28.39.4.15.12.33.24.53.35.2.11.43.2.67.27.19.05.38.1.58.12.2.03.4.04.6.04.2,0,.41-.01.6-.04.19-.03.36-.07.55-.12.19-.06.39-.13.63-.25.23-.12.49-.27.7-.43h0Zm-.79-10.95c.48-.01.96,0,1.42.03.46.03.92.09,1.35.16.44.08.86.17,1.27.29.51.13,1.02.29,1.4.43.38.14.64.28.85.4.22.12.39.23.56.36.18.14.36.3.55.5.19.2.38.43.57.74.19.31.37.69.5,1,.13.31.2.55.25.83.05.29.1.62.08,1.1-.01.48-.08,1.09-.18,1.64-.1.54-.21,1.01-.36,1.46-.15.45-.33.88-.54,1.31-.21.42-.45.82-.72,1.21-.49.74-1.05,1.44-1.56,1.95-.51.51-.96.83-1.38,1.09-.42.26-.79.45-1.18.62-.38.16-.77.28-1.21.4-.45.11-.94.21-1.54.28-.59.07-1.28.11-2.12.11-.84,0-1.84-.04-2.61-.12-.77-.08-1.32-.2-1.76-.32-.45-.13-.8-.25-1.11-.39-.31-.14-.58-.29-.82-.45-.24-.16-.46-.34-.65-.52-.18-.18-.33-.36-.5-.58-.16-.22-.33-.49-.5-.88-.17-.4-.34-.92-.46-1.46-.09-.32-.15-.64-.18-1.01-.04-.36-.05-.77-.02-1.23.03-.47.1-.99.24-1.59.13-.6.32-1.28.54-1.82.22-.55.46-.96.7-1.33.24-.37.49-.68.83-1.03.34-.35.77-.73,1.24-1.07.47-.34.98-.65,1.51-.9.53-.26,1.08-.47,1.56-.62.49-.16.91-.25,1.33-.33.43-.08.86-.14,1.3-.18.44-.04.88-.06,1.32-.05h0Zm76.85,11.19c.2-.08.43-.19.69-.36.26-.17.56-.4.83-.64.27-.24.51-.52.7-.8.19-.28.34-.59.43-.9.09-.31.13-.63.14-.95,0-.32-.03-.64-.08-.89-.05-.25-.11-.42-.18-.56-.07-.14-.14-.25-.21-.35-.07-.1-.15-.18-.24-.26-.08-.08-.17-.15-.27-.21-.17-.11-.35-.21-.56-.29-.21-.08-.44-.16-.72-.2-.28-.05-.59-.07-.85-.08-.26,0-.45.01-.65.04-.2.03-.41.08-.63.14-.22.07-.44.15-.67.27-.23.11-.47.25-.65.38-.18.12-.31.22-.42.34-.12.12-.24.25-.36.42-.12.17-.25.37-.38.66-.12.3-.25.69-.33,1.08-.07.27-.12.54-.14.74-.02.2-.02.33,0,.43,0,.1.03.18.05.26.06.21.14.41.25.59.11.18.23.35.38.49.14.14.3.27.48.38.17.11.37.21.57.3.2.08.42.15.65.19.23.04.47.07.67.07.19.01.35,0,.5-.01.15-.02.31-.04.47-.09.17-.05.35-.1.55-.19h0Zm4.13-14.25l6.64-.03-3.65,18.51-5.86.04.3-2.09c-.55.51-1.17.94-1.82,1.27-.65.33-1.33.56-2.05.71-.72.15-1.49.21-2.25.18-.53-.01-1.06-.07-1.5-.13-.43-.06-.78-.15-1.07-.24-.29-.09-.54-.19-.76-.3-.23-.11-.43-.23-.62-.37-.2-.14-.39-.3-.59-.5-.2-.2-.42-.44-.65-.79-.23-.35-.47-.8-.69-1.38-.21-.57-.4-1.26-.46-2.06-.06-.79,0-1.69.2-2.56.2-.87.56-1.72.91-2.4.35-.69.7-1.22,1.08-1.66.38-.44.79-.78,1.17-1.08.38-.29.74-.53,1.09-.74.35-.21.71-.37,1.07-.52.36-.15.74-.26,1.13-.36.39-.09.81-.16,1.25-.21.45-.04.93-.06,1.42-.05.49.01.98.05,1.38.1.39.05.69.12.94.2.25.07.44.14.63.23.18.09.34.17.49.27.15.1.3.21.43.35.14.13.28.28.41.46.13.19.26.41.37.63l1.06-5.48h0Zm-71.97,14.64l-.75,3.72c1.09.28,2.2.48,3.23.6,1.03.12,1.98.15,2.83.12.85-.03,1.61-.11,2.38-.24.77-.13,1.55-.32,2.17-.51.61-.19,1.06-.39,1.44-.59.38-.2.69-.4.99-.63.29-.23.57-.49.84-.81.26-.32.52-.69.73-1.06.21-.37.38-.74.49-1.04.11-.3.17-.55.19-.76.03-.22.03-.4.02-.57-.03-.35-.13-.65-.3-.97-.09-.16-.2-.33-.34-.51-.15-.17-.32-.36-.51-.52-.18-.17-.37-.31-.57-.44-.2-.13-.41-.24-.69-.36-.28-.13-.62-.26-1.21-.4-.59-.14-1.43-.29-2.27-.39-.34-.03-.68-.07-.94-.1-.27-.03-.45-.06-.59-.09-.14-.03-.24-.06-.31-.09-.08-.03-.14-.06-.19-.09-.05-.03-.1-.06-.14-.09-.04-.03-.08-.07-.11-.11-.04-.04-.06-.08-.09-.13-.06-.1-.11-.24-.12-.37,0-.07-.01-.14,0-.2.02-.21.11-.41.34-.6.05-.04.12-.09.2-.14.08-.05.18-.1.3-.15.12-.05.27-.1.46-.15.2-.05.43-.09.7-.13.27-.03.57-.05.9-.05s.68.02,1.06.07c.38.05.79.13,1.24.25.45.12.94.29,1.45.52.52.23,1.06.52,1.57.84l.62-3.63c-.73-.39-1.5-.71-2.27-.96-.77-.24-1.53-.41-2.28-.51-.75-.1-1.49-.14-2.28-.1-.79.03-1.63.14-2.36.3-.73.17-1.34.39-1.91.68-.57.29-1.11.64-1.59,1.04-.48.4-.89.85-1.19,1.29-.31.44-.51.88-.63,1.3-.12.42-.17.81-.15,1.21.02.34.06.69.12.95.06.27.14.45.21.61.08.16.15.28.24.39.08.11.17.2.27.29.1.09.2.17.33.25.12.08.27.17.46.25.19.09.42.18.75.27.33.1.76.19,1.19.26.09.03.18.05.58.1.4.04,1.1.12,1.6.19.5.07.8.15,1.02.21.21.07.34.11.43.16.18.08.25.13.35.22.04.05.1.1.14.15.04.05.07.1.09.14.06.12.07.22.06.32,0,.03-.01.07-.03.11-.01.04-.03.08-.07.13-.03.05-.08.11-.16.19-.07.08-.18.18-.26.25-.09.07-.15.11-.23.15-.09.05-.19.1-.35.15-.15.06-.36.12-.67.18-.32.06-.75.13-1.33.17-.58.03-1.32.04-2.06.02-.34-.02-.68-.05-1.02-.1-.34-.05-.68-.11-1.01-.18-.33-.08-.66-.16-.98-.26h0Zm84.75-1.99c.69-.16,1.38-.32,1.91-.46.53-.13.89-.23,1.18-.32.3-.09.53-.18.77-.28-.02.54-.18,1.09-.47,1.61-.14.26-.32.5-.52.74-.2.24-.43.47-.64.65-.21.18-.41.31-.59.42-.18.1-.33.19-.49.26-.15.07-.29.11-.43.16-.14.04-.28.07-.42.09-.28.04-.54.05-.86.01-.17-.02-.35-.05-.49-.08-.14-.04-.26-.07-.34-.11-.09-.04-.17-.07-.22-.11-.06-.04-.12-.07-.16-.11-.05-.03-.09-.08-.12-.12-.04-.04-.07-.09-.1-.14-.03-.05-.05-.11-.08-.17-.02-.06-.04-.14-.05-.23-.01-.09-.01-.2,0-.31,0-.1.03-.2.06-.28.03-.09.06-.16.1-.23.04-.06.08-.12.13-.18.05-.06.1-.11.16-.16.06-.05.13-.1.24-.16.1-.06.24-.14.49-.23.25-.09.61-.19.97-.26h0Zm-5.11-4.95c1.19-.31,2.39-.56,3.34-.71.96-.14,1.67-.18,2.24-.19.58,0,1.03.03,1.48.09.38.03.77.08,1.03.13.26.06.41.11.52.15.11.04.19.08.26.12.06.04.12.07.16.11.05.04.09.08.12.12.03.04.07.09.1.13.03.05.05.1.07.16.02.06.03.12.04.2,0,.08,0,.16,0,.24,0,.13-.04.2-.09.3-.06.1-.14.19-.25.29-.06.05-.14.11-.24.17-.11.06-.23.13-.43.21-.2.08-.46.18-.87.28-.41.1-.97.2-1.69.3-.72.1-1.61.21-2.5.3-.77.09-1.54.23-2.16.38-.62.15-1.09.31-1.48.47-.39.16-.7.31-.97.47-.26.16-.48.31-.67.46-.19.16-.35.32-.5.49-.15.17-.27.34-.37.53-.11.19-.2.39-.27.61-.07.22-.12.47-.15.75-.03.28-.02.59.02.9.04.32.12.62.22.9.11.27.24.51.4.72.16.21.33.4.54.58.2.17.43.33.69.48.26.15.56.28.9.4.35.11.74.22,1.21.29.47.07,1,.11,1.51.11.51,0,.99-.05,1.49-.14.5-.09,1.02-.23,1.54-.42.52-.19,1.05-.44,1.56-.75.51-.31.99-.67,1.44-1.08l-.28,2.25,5.48-.02,1.96-11.39c.03-.19.05-.39.04-.57,0-.18-.03-.35-.06-.5-.04-.15-.09-.3-.16-.43-.14-.28-.32-.53-.6-.8-.15-.13-.32-.27-.54-.43-.23-.16-.52-.33-.94-.53-.42-.19-.98-.4-1.55-.58-.45-.15-.91-.27-1.44-.37-.53-.1-1.12-.18-1.79-.22-.68-.04-1.44-.04-2.29.02-.85.05-1.78.17-2.72.35-.95.18-1.9.42-2.83.72l-.53,3.93h0Zm18.61-7.76h6.47s-3.27,18.57-3.27,18.57l-6.75-.02,3.56-18.55h0Zm18.66,7.92c.16.16.3.33.4.51.1.18.18.38.22.58l-7.05-.03c.09-.19.2-.37.32-.54.13-.17.28-.33.44-.47.17-.15.35-.28.56-.4.2-.12.44-.23.68-.31.25-.09.5-.16.76-.21.26-.05.53-.08.83-.09.3,0,.63.02.93.06.29.04.54.11.76.19.22.08.42.17.61.28.19.12.37.26.53.41h0Zm-7.13,4.73h11.4c.43-.73.79-1.51.99-2.16.21-.65.27-1.17.25-1.75-.02-.58-.1-1.23-.26-1.85-.12-.4-.29-.78-.47-1.11-.19-.34-.4-.62-.64-.88-.23-.25-.49-.48-.76-.68-.28-.2-.59-.39-.93-.56-.34-.17-.73-.32-1.18-.45-.45-.13-.97-.25-1.58-.33-.62-.08-1.34-.12-2.06-.12-1.2.02-2.41.16-3.41.38-1.01.22-1.82.53-2.57.92-.76.39-1.46.86-2.13,1.54-.68.68-1.33,1.56-1.8,2.38-.47.82-.77,1.58-.95,2.3-.18.72-.23,1.39-.19,2.03.04.64.16,1.24.41,1.89.25.64.61,1.31,1.02,1.86.41.55.87.97,1.35,1.32.48.35,1,.63,1.58.86.58.23,1.23.42,2.01.53.78.11,1.68.16,2.62.11.93-.04,1.9-.17,2.78-.37.88-.2,1.68-.48,2.46-.86.77-.38,1.52-.84,2.22-1.38l.47-3.06c-.54.36-1.1.69-1.68.95-.57.26-1.14.48-1.68.63-.54.16-1.04.25-1.5.31-.46.06-.88.08-1.3.07-.41,0-.82-.05-1.18-.1-.36-.05-.66-.13-.92-.2-.26-.08-.48-.16-.68-.26-.2-.09-.37-.19-.52-.29-.15-.1-.28-.21-.41-.32-.12-.12-.23-.24-.32-.37-.1-.14-.18-.28-.25-.44-.07-.16-.13-.34-.17-.53h0Z"/>
    <g>
      <path class="cls-4" d="m648.01,88.01l.1-3.77c2.33-.17,5.11-.9,6.73-2.17h4.12l-3.26,18.08h-5.65l2.3-12.86c-.96.42-3.45.72-4.34.72Z"/>
      <path class="cls-4" d="m665.18,97.08c1.37,0,2.52-1.55,3.16-5-.83.67-2.04,1.05-3.64,1.05-2.49,0-4.85-1.4-4.85-4.37,0-5.02,4.15-7.02,7.85-7.02,4.72,0,6.64,2.72,6.64,6.67,0,6.54-2.3,12.04-9.45,12.04-3.54,0-6.29-1.25-6.61-4.47l5.2-1.1c.03,1.07.22,2.2,1.69,2.2Zm3.64-9.82c0-1.27-.32-2.15-1.28-2.15-1.25,0-1.82,1.15-1.82,2.82,0,1.35.58,1.9,1.5,1.9.38,0,1.02-.23,1.47-.67.09-.7.13-1.3.13-1.9Z"/>
      <path class="cls-4" d="m674.42,96.45l4.69-4.42c3.29-3.12,4.63-4.22,4.63-5.54,0-.77-.38-1.22-1.12-1.22-1.15,0-1.59.77-2.07,2.35l-5.11-.67c.7-3.87,3.93-5.19,7.88-5.19,4.4,0,6.29,1.92,6.29,4.4s-1.24,4.02-6.48,8.42l-2.2,1.85h7.21l-.73,3.75h-13.72l.73-3.7Z"/>
      <path class="cls-4" d="m696.09,96.33h-8.65l.64-3.2,8.71-11.06h7.34l-1.88,10.64h2.14l-.7,3.62h-2.14l-.67,3.82h-5.49l.7-3.82Zm1.79-10.29l-4.98,6.67h3.86l1.12-6.67Z"/>
    </g>
  </g>
  <g>
    <path class="cls-2" d="m103.94,105.14l15.77-18.77h34l-3.5,18.89h32.09l16.65-91.16h-48.94l-49.81,54.33-17.16.17-15.55,17.77h16.08l-17.82,18.89,38.19-.12Zm60.3-72.12l-7.02,35.64-22.49-.23,29.51-35.41Z"/>
    <polygon class="cls-2" points="212.9 105.26 224.97 43.12 201.86 43.12 189.79 105.26 212.9 105.26"/>
    <path class="cls-2" d="m214.7,35.42c9.25,0,12.97-4.62,14.12-10.66,1.28-6.03,0-10.66-9.89-10.66s-13.1,4.62-14.38,10.66c-1.16,6.04.77,10.66,10.14,10.66Z"/>
    <path class="cls-2" d="m314.7,106.68c14.25,0,31.2-11.43,35.05-31.71,5.39-27.48-13.74-33.38-21.83-33.38-6.29,0-12.97,2.18-19.26,7.83v-6.29h-19.64l-17.08,87.82h23.37l5.52-28.89c3.34,3.08,9.24,4.62,13.87,4.62Zm-5.91-45.07c2.18-1.41,5.65-2.7,9.5-2.7,7.19,0,10.91,7.06,9.25,15.54-1.54,7.7-7.83,15.54-16.31,15.54-2.57,0-5.52-.77-7.58-2.18l5.14-26.19Z"/>
    <path class="cls-2" d="m113.7,161.57c9.37-2.31,13.61-11.56,14.51-16.05,4.11-21.18-12.97-26.06-21.7-26.06h-40.83l-17.08,88.46h39.42c19.13,0,33.64-7.96,37.23-26.71,1.67-8.86-2.05-18.1-11.56-19.64Zm-13.35,19.26c-1.03,5.01-4.75,7.96-8.73,7.96h-14.64l3.34-16.56h14.51c3.08,0,6.68,2.18,5.52,8.6Zm2.95-34.15c-.9,4.49-3.85,8.47-8.73,8.47h-11.04l3.21-16.56h11.04c4.24,0,6.42,3.47,5.52,8.09Z"/>
    <path class="cls-2" d="m324.83,188.53s.39-2.31.9-5.01l2.31-11.55h37.11l3.72-19h-37.11l2.7-14.12h40.7l3.72-19.39h-65.22l-13.22,68.18c-2.82,15.15-3.39,20.29-3.39,20.29h64.76l3.72-19.39h-40.7Z"/>
    <polygon class="cls-2" points="421.11 176.59 449.74 145.78 422.78 145.78 409.81 162.47 403.77 145.78 376.81 145.78 393.25 176.59 364.36 207.92 391.32 207.92 404.42 190.59 410.84 207.92 437.93 207.92 421.11 176.59"/>
    <path class="cls-2" d="m493.6,144.24c-6.29,0-12.97,2.18-19.26,7.83v-6.29h-19.64l-17.08,87.82h23.37l5.52-28.89c3.34,3.08,9.24,4.62,13.87,4.62,14.25,0,31.2-11.43,35.05-31.71,5.39-27.48-13.74-33.38-21.83-33.38Zm-.38,32.87c-1.54,7.7-7.83,15.54-16.31,15.54-2.57,0-5.52-.77-7.58-2.18l5.14-26.19c2.18-1.41,5.65-2.7,9.5-2.7,7.19,0,10.91,7.06,9.25,15.54Z"/>
    <path class="cls-2" d="m249.17,105.26l5.7-30.87c.25-1.33.72-2.63,1.37-3.83.63-1.19,1.42-2.3,2.39-3.32.99-1.02,2.12-1.96,3.46-2.82,1.33-.85,2.85-1.62,4.57-2.26,1.71-.64,3.6-1.15,5.62-1.49,2.02-.33,4.16-.48,6.31-.44l3.58-17.97c-2.83-.43-5.73-.53-8.33-.28-2.59.26-4.9.84-7.03,1.7-2.14.85-4.11,1.96-5.86,3.46-1.77,1.51-3.33,3.38-4.56,5.46l1.85-9.18-22.88.17-11.7,61.52,25.51.16Z"/>
    <path class="cls-2" d="m459.3,105.26l5.7-30.87c.25-1.33.72-2.63,1.37-3.83.63-1.19,1.42-2.3,2.39-3.32.99-1.02,2.12-1.96,3.46-2.82,1.33-.85,2.85-1.62,4.57-2.26,1.71-.64,3.6-1.15,5.62-1.49,2.02-.33,4.16-.48,6.31-.44l3.58-17.97c-2.83-.43-5.73-.53-8.33-.28-2.59.26-4.9.84-7.03,1.7-2.14.85-4.11,1.96-5.86,3.46-1.77,1.51-3.33,3.38-4.56,5.46l1.85-9.18-22.88.17-11.7,61.52,25.51.16Z"/>
    <path class="cls-2" d="m566.68,144.64c-2.59.26-4.9.84-7.03,1.7-2.14.85-4.11,1.96-5.86,3.46-1.77,1.51-3.33,3.38-4.56,5.46l1.85-9.18-22.88.17-11.7,61.52,25.51.16,5.7-30.87c.25-1.33.72-2.63,1.37-3.83.63-1.19,1.42-2.3,2.39-3.32.99-1.02,2.12-1.96,3.46-2.82,1.33-.85,2.85-1.62,4.57-2.26,1.71-.64,3.6-1.15,5.62-1.49,2.02-.33,4.16-.48,6.31-.44l3.58-17.97c-2.83-.43-5.73-.53-8.33-.28Z"/>
    <path class="cls-2" d="m495.17,87.8c-.17,1.01-.26,2.06-.17,3.06.08,1,.31,1.94.66,2.87.35.93.84,1.83,1.48,2.72.63.89,1.42,1.77,2.39,2.61.97.85,2.11,1.66,3.44,2.41,1.33.76,2.85,1.43,4.48,2.01,1.63.57,3.39,1.02,5.47,1.34,2.07.31,4.46.49,7,.44,2.54-.06,5.24-.36,7.99-.94,2.75-.59,5.58-1.46,8.29-2.58l3.02-14.01c-1.7.69-3.5,1.12-5.31,1.3-.92.08-1.82.11-2.86.08-1.02-.02-2.15-.1-3.06-.21-.91-.12-1.63-.28-2.2-.45-.58-.16-1.03-.33-1.42-.49-.39-.17-.7-.34-.98-.52-.28-.17-.51-.36-.73-.54-.21-.18-.4-.38-.56-.58-.17-.21-.31-.43-.43-.68-.13-.24-.23-.5-.31-.81-.08-.3-.14-.64-.16-1.01-.01-.4,0-.85.08-1.28l3.92-24.5,18.96-.2,3.09-15.59-17.05-.17,2.41-14.06-12.56-.05c-1.98,2.44-4.22,4.65-6.62,6.55-2.4,1.9-4.96,3.47-7.86,4.86-2.9,1.39-6.17,2.6-9.52,3.49l-3.16,15.1,7.84-.14-5.57,29.96Z"/>
    <path class="cls-2" d="m356.67,85.69c.51,2.22,1.21,4.41,1.92,6.04.71,1.64,1.42,2.74,2.09,3.66.67.91,1.3,1.66,2.06,2.39.77.73,1.68,1.47,2.69,2.15,1.01.68,2.11,1.3,3.39,1.88,1.28.57,2.73,1.11,4.59,1.62,1.85.51,4.1,1,7.3,1.33,3.2.33,7.33.5,10.82.49,3.49,0,6.32-.16,8.78-.44,2.45-.29,4.5-.7,6.36-1.16,1.83-.47,3.45-1,5.03-1.65,1.59-.67,3.14-1.48,4.87-2.56,1.72-1.07,3.6-2.42,5.71-4.52,2.1-2.11,4.43-5.01,6.45-8.08,1.12-1.6,2.12-3.27,3-5,.88-1.75,1.62-3.55,2.24-5.41.61-1.87,1.09-3.79,1.48-6.05.38-2.27.67-4.82.72-6.8.06-1.98-.12-3.36-.34-4.55-.23-1.19-.53-2.16-1.05-3.45-.54-1.27-1.32-2.86-2.09-4.12-.81-1.27-1.61-2.24-2.38-3.06-.78-.83-1.53-1.5-2.27-2.07-.72-.55-1.42-1-2.32-1.49-.87-.48-1.94-1.04-3.51-1.64-1.59-.6-3.67-1.26-5.8-1.79-1.7-.49-3.44-.87-5.25-1.18-1.8-.3-3.68-.54-5.61-.67-1.93-.13-3.92-.17-5.9-.11-1.84-.03-3.66.05-5.48.21-1.82.16-3.64.41-5.4.74-1.77.33-3.51.74-5.52,1.38-2.01.63-4.27,1.52-6.46,2.58-2.18,1.07-4.29,2.32-6.23,3.74-1.96,1.41-3.73,3-5.15,4.43-1.4,1.44-2.42,2.73-3.43,4.25-1.01,1.52-1.99,3.25-2.89,5.51-.89,2.27-1.69,5.06-2.23,7.55-.55,2.49-.87,4.66-.98,6.59-.13,1.91-.08,3.58.08,5.08.14,1.51.39,2.84.74,4.17Zm23.1-8.64c-.03-.78-.01-1.55.06-2.27.07-.72.18-1.4.32-2.07.15-.65.34-1.3.64-2.1.3-.8.74-1.77,1.19-2.61.48-.85.97-1.59,1.48-2.25.5-.67,1.02-1.26,1.72-1.94.71-.67,1.62-1.44,2.45-2.04.85-.61,1.64-1.06,2.39-1.44.75-.38,1.46-.67,2.28-.97.83-.29,1.77-.56,2.6-.75.84-.19,1.54-.29,2.2-.37.66-.06,1.25-.09,1.82-.08,1.18.03,2.36.16,3.46.4,1.1.23,2.12.57,3.04.98.91.41,1.7.87,2.44,1.45.49.37.97.8,1.36,1.23.8.87,1.34,1.71,1.67,2.58.13.3.22.61.3,1.02.08.41.13.89.09,1.68-.04.78-.19,1.86-.39,2.92-.13,1.39-.42,2.77-.87,4.16-.68,2.05-1.73,4.27-2.79,5.86-.71,1.07-1.42,1.86-2.11,2.52-.69.67-1.35,1.23-2.23,1.83-.88.62-1.95,1.28-2.92,1.76-.97.49-1.82.79-2.61,1.03-.79.23-1.5.39-2.28.5-.79.1-1.64.15-2.48.15-.83,0-1.66-.06-2.47-.18-.82-.12-1.62-.29-2.4-.51-.97-.31-1.93-.69-2.77-1.14-.84-.45-1.57-.94-2.2-1.45-.64-.52-1.16-1.06-1.63-1.67-.23-.31-.43-.65-.63-1.08-.2-.44-.42-.98-.56-1.86-.14-.88-.21-2.1-.19-3.31Z"/>
    <path class="cls-2" d="m234.2,158.91c.34-.19.74-.4,1.26-.61.51-.21,1.12-.42,1.92-.62.82-.2,1.79-.38,2.89-.53,1.12-.13,2.36-.22,3.72-.22s2.82.07,4.4.28c1.58.19,3.28.52,5.15,1.03,1.86.5,3.89,1.2,6.01,2.15,2.14.94,4.38,2.14,6.51,3.49l2.55-15.02c-3.03-1.6-6.21-2.95-9.38-3.96-3.17-1.01-6.32-1.71-9.43-2.12-3.1-.42-6.17-.58-9.45-.43-3.27.14-6.75.58-9.76,1.26-3.01.71-5.53,1.62-7.92,2.82-2.38,1.19-4.61,2.64-6.57,4.29-1.97,1.66-3.68,3.51-4.95,5.34-1.27,1.83-2.11,3.65-2.62,5.36-.51,1.73-.7,3.36-.6,4.99.07,1.43.26,2.84.51,3.95.25,1.11.57,1.88.89,2.52.32.65.63,1.15.97,1.6.34.45.71.85,1.1,1.21.4.36.83.72,1.36,1.04.51.34,1.12.68,1.9,1.04.77.36,1.73.76,3.11,1.13,1.36.4,3.14.77,4.93,1.06.36.14.74.21,2.4.41,1.64.18,4.53.48,6.62.78,2.07.3,3.33.61,4.23.86.88.27,1.39.46,1.79.65.74.34,1.03.53,1.43.9.19.19.4.42.58.63.16.22.28.42.37.59.25.5.3.91.23,1.33,0,.14-.05.29-.12.47-.06.15-.14.32-.28.55-.14.21-.33.46-.64.79-.3.34-.76.75-1.09,1.04-.36.29-.62.46-.96.64-.36.2-.78.41-1.44.63-.64.23-1.5.48-2.79.75-1.31.26-3.1.53-5.51.7-2.41.14-5.48.18-8.53.07-1.42-.09-2.82-.22-4.24-.43-1.4-.2-2.82-.45-4.2-.75-1.38-.31-2.73-.67-4.07-1.08l-3.09,15.41c4.51,1.15,9.1,2,13.36,2.47,4.26.49,8.19.61,11.72.5,3.53-.11,6.66-.44,9.84-1,3.19-.55,6.43-1.32,8.97-2.11,2.54-.8,4.38-1.62,5.95-2.45,1.56-.84,2.87-1.67,4.09-2.61,1.22-.97,2.36-2.03,3.46-3.33,1.09-1.31,2.16-2.87,3.02-4.4.88-1.53,1.57-3.05,2.03-4.32.46-1.26.68-2.27.8-3.14.12-.89.13-1.65.07-2.36-.14-1.46-.53-2.7-1.22-4.03-.36-.67-.81-1.36-1.4-2.1-.6-.72-1.34-1.49-2.11-2.17-.76-.69-1.53-1.27-2.36-1.82-.82-.52-1.69-.98-2.85-1.49-1.14-.52-2.55-1.08-5.01-1.67-2.44-.58-5.91-1.19-9.41-1.61-1.41-.11-2.83-.27-3.91-.4-1.1-.13-1.86-.26-2.45-.37-.59-.13-.98-.27-1.29-.39-.32-.12-.56-.25-.79-.37-.22-.13-.42-.26-.59-.39-.17-.14-.32-.28-.46-.44-.15-.17-.26-.34-.37-.56-.26-.4-.45-.99-.51-1.55-.03-.29-.04-.57-.01-.82.07-.86.46-1.69,1.39-2.48.22-.17.48-.38.82-.57Z"/>
    <path class="cls-2" d="m683.92,158.91c.34-.19.74-.4,1.26-.61.51-.21,1.12-.42,1.92-.62.82-.2,1.79-.38,2.9-.53,1.12-.13,2.36-.22,3.72-.22s2.82.07,4.4.28c1.58.19,3.28.52,5.15,1.03,1.86.5,3.89,1.2,6.01,2.15,2.14.94,4.38,2.14,6.51,3.49l2.55-15.02c-3.03-1.6-6.21-2.95-9.38-3.96-3.17-1.01-6.32-1.71-9.43-2.12-3.1-.42-6.17-.58-9.45-.43-3.27.14-6.75.58-9.76,1.26-3.01.71-5.53,1.62-7.92,2.82-2.38,1.19-4.61,2.64-6.57,4.29-1.97,1.66-3.68,3.51-4.95,5.34-1.27,1.83-2.11,3.65-2.62,5.36-.51,1.73-.7,3.36-.6,4.99.07,1.43.26,2.84.51,3.95.25,1.11.57,1.88.89,2.52.33.65.63,1.15.97,1.6.34.45.71.85,1.1,1.21.4.36.83.72,1.36,1.04.51.34,1.12.68,1.9,1.04.77.36,1.73.76,3.11,1.13,1.36.4,3.14.77,4.93,1.06.36.14.74.21,2.4.41,1.64.18,4.53.48,6.62.78,2.07.3,3.33.61,4.23.86.88.27,1.39.46,1.79.65.74.34,1.03.53,1.43.9.19.19.4.42.58.63.16.22.28.42.37.59.25.5.3.91.23,1.33,0,.14-.05.29-.12.47-.06.15-.14.32-.28.55-.14.21-.33.46-.64.79-.3.34-.76.75-1.09,1.04-.36.29-.62.46-.96.64-.36.2-.78.41-1.44.63-.64.23-1.5.48-2.79.75-1.31.26-3.1.53-5.51.7-2.41.14-5.48.18-8.53.07-1.42-.09-2.82-.22-4.24-.43-1.4-.2-2.82-.45-4.2-.75-1.38-.31-2.73-.67-4.07-1.08l-3.09,15.41c4.51,1.15,9.1,2,13.36,2.47,4.26.49,8.19.61,11.72.5,3.53-.11,6.66-.44,9.84-1,3.19-.55,6.43-1.32,8.97-2.11,2.54-.8,4.38-1.62,5.95-2.45,1.56-.84,2.87-1.67,4.09-2.61,1.22-.97,2.36-2.03,3.46-3.33,1.09-1.31,2.16-2.87,3.02-4.4.88-1.53,1.57-3.05,2.03-4.32.46-1.26.68-2.27.8-3.14.12-.89.13-1.65.07-2.36-.14-1.46-.53-2.7-1.22-4.03-.36-.67-.81-1.36-1.4-2.1-.6-.72-1.34-1.49-2.11-2.17-.76-.69-1.53-1.27-2.36-1.82-.82-.52-1.69-.98-2.85-1.49-1.14-.52-2.55-1.08-5.01-1.67-2.44-.58-5.91-1.19-9.41-1.61-1.41-.11-2.83-.27-3.91-.4-1.1-.13-1.86-.26-2.45-.37-.59-.13-.98-.27-1.29-.39-.32-.12-.56-.25-.79-.37-.22-.13-.42-.26-.59-.39-.17-.14-.32-.28-.46-.44-.15-.17-.26-.34-.37-.56-.26-.4-.45-.99-.51-1.55-.03-.29-.04-.57-.01-.82.08-.86.46-1.69,1.39-2.48.22-.17.48-.38.82-.57Z"/>
    <path class="cls-2" d="m781.53,178.11c-.36-.67-.81-1.36-1.4-2.1-.6-.72-1.34-1.49-2.1-2.17-.76-.69-1.53-1.27-2.36-1.82-.82-.52-1.69-.98-2.85-1.49-1.14-.52-2.55-1.08-5.01-1.67-2.44-.58-5.91-1.19-9.41-1.61-1.41-.11-2.83-.27-3.91-.4-1.1-.13-1.87-.26-2.45-.37-.59-.13-.98-.27-1.29-.39-.32-.12-.56-.25-.79-.37-.22-.13-.42-.26-.59-.39-.17-.14-.32-.28-.46-.44-.15-.17-.26-.34-.37-.56-.26-.4-.45-.99-.51-1.55-.03-.29-.04-.57-.01-.82.07-.86.46-1.69,1.39-2.48.22-.17.48-.38.82-.57.34-.19.74-.4,1.26-.61.51-.21,1.12-.42,1.92-.62.82-.2,1.79-.38,2.9-.53,1.12-.13,2.36-.22,3.72-.22s2.82.07,4.4.28c1.58.19,3.28.52,5.15,1.03,1.86.5,3.89,1.2,6.01,2.15,2.14.94,4.38,2.14,6.51,3.49l2.55-15.02c-3.03-1.6-6.21-2.95-9.38-3.96-3.17-1.01-6.32-1.71-9.43-2.12-3.1-.42-6.17-.58-9.45-.43-3.27.14-6.75.58-9.76,1.26-3.01.71-5.54,1.62-7.92,2.82-2.38,1.19-4.61,2.64-6.57,4.29-1.97,1.66-3.68,3.51-4.95,5.34-1.27,1.83-2.11,3.65-2.62,5.36-.51,1.73-.7,3.36-.6,4.99.07,1.43.26,2.84.51,3.95.25,1.11.57,1.88.89,2.52.32.65.63,1.15.97,1.6.34.45.71.85,1.1,1.21.4.36.83.72,1.36,1.04.51.34,1.12.68,1.9,1.04.77.36,1.73.76,3.11,1.13,1.36.4,3.15.77,4.93,1.06.36.14.74.21,2.4.41,1.64.18,4.53.48,6.62.78,2.07.3,3.33.61,4.23.86.88.27,1.39.46,1.79.65.74.34,1.03.53,1.43.9.19.19.4.42.58.63.16.22.28.42.37.59.25.5.3.91.23,1.33,0,.14-.05.29-.12.47-.06.15-.14.32-.28.55-.14.21-.33.46-.64.79-.3.34-.76.75-1.09,1.04-.36.29-.62.46-.96.64-.36.2-.78.41-1.44.63-.64.23-1.5.48-2.79.75-1.31.26-3.1.53-5.51.7-2.41.14-5.48.18-8.53.07-1.42-.09-2.82-.22-4.24-.43-1.4-.2-2.82-.45-4.2-.75-1.38-.31-2.73-.67-4.07-1.08l-3.08,15.41c4.51,1.15,9.1,2,13.36,2.47,4.26.49,8.19.61,11.72.5,3.53-.11,6.66-.44,9.84-1,3.19-.55,6.43-1.32,8.97-2.11,2.54-.8,4.38-1.62,5.95-2.45,1.56-.84,2.87-1.67,4.09-2.61,1.22-.97,2.36-2.03,3.46-3.33,1.09-1.31,2.16-2.87,3.02-4.4.88-1.53,1.57-3.05,2.03-4.32.46-1.26.68-2.27.8-3.14.12-.89.13-1.65.07-2.36-.14-1.46-.53-2.7-1.22-4.03Z"/>
    <path class="cls-2" d="m648.03,153.63c-.78-1.4-1.68-2.57-2.64-3.63-.96-1.05-2.01-1.98-3.16-2.84-1.16-.84-2.43-1.61-3.86-2.3-1.43-.7-3.03-1.33-4.89-1.88-1.87-.55-4.01-1.04-6.56-1.36-2.57-.32-5.56-.49-8.55-.48-4.98.07-9.96.65-14.13,1.56-4.17.93-7.52,2.21-10.64,3.83-3.13,1.62-6.04,3.57-8.83,6.38-2.8,2.8-5.5,6.46-7.46,9.86-1.97,3.4-3.2,6.53-3.92,9.5-.73,2.96-.95,5.74-.78,8.4.16,2.64.68,5.15,1.68,7.81,1.03,2.64,2.54,5.43,4.24,7.69,1.7,2.27,3.58,4.01,5.6,5.46,2,1.44,4.14,2.6,6.55,3.56,2.41.97,5.11,1.72,8.34,2.19,3.23.47,6.97.64,10.84.47,3.87-.17,7.86-.72,11.51-1.55,3.66-.85,6.96-2,10.16-3.54,3.2-1.55,6.31-3.49,9.18-5.72l1.93-12.68c-2.23,1.5-4.57,2.84-6.94,3.93-2.36,1.09-4.73,1.97-6.95,2.59-2.22.64-4.29,1.05-6.19,1.3-1.92.24-3.66.33-5.39.3-1.71-.04-3.41-.2-4.87-.42-1.47-.23-2.73-.52-3.82-.84-1.09-.33-2.01-.68-2.82-1.06-.82-.38-1.52-.79-2.15-1.21-.63-.43-1.18-.87-1.68-1.34-.49-.49-.95-.99-1.33-1.55-.41-.56-.76-1.16-1.05-1.84-.3-.67-.54-1.42-.71-2.19l47.22-.05c1.8-2.98,3.27-6.2,4.12-8.87.85-2.68,1.11-4.84,1.03-7.23-.06-2.41-.42-5.07-1.1-7.65-.49-1.64-1.18-3.22-1.96-4.6Zm-46.42,13.24c.37-.78.81-1.53,1.33-2.23.53-.69,1.15-1.35,1.83-1.94.69-.61,1.46-1.16,2.32-1.64.85-.5,1.82-.93,2.83-1.3,1.02-.37,2.08-.67,3.16-.86,1.09-.22,2.2-.35,3.43-.36,1.24-.01,2.63.09,3.84.25,1.2.18,2.24.46,3.15.77.92.32,1.74.7,2.52,1.17.78.49,1.54,1.07,2.19,1.72.66.64,1.22,1.36,1.66,2.12.43.76.73,1.58.93,2.41l-29.2-.11Z"/>
    <path class="cls-2" d="m181.07,147.08l-6.88,35.21c-.19.96-.54,1.91-1,2.77-.46.88-1.05,1.67-1.73,2.36-.67.69-1.4,1.29-2.17,1.78-.77.49-1.58.89-2.42,1.18-.83.3-1.68.52-2.58.65-.9.13-1.84.18-2.7.16-.86-.02-1.64-.1-2.3-.2-.66-.1-1.22-.24-1.7-.37-.47-.14-.87-.31-1.23-.45-.35-.16-.64-.32-.9-.5-.27-.17-.49-.35-.69-.55-.21-.17-.39-.39-.56-.59-.15-.2-.29-.43-.41-.68-.11-.24-.21-.52-.29-.81-.06-.3-.11-.63-.13-1.02,0-.38.04-.82.11-1.25l6.81-37.62-25.13-.05-8.11,41.1c-.37,1.89-.44,3.85-.27,5.54.17,1.71.58,3.18,1.13,4.46.55,1.3,1.25,2.4,2.06,3.39.79.99,1.71,1.84,2.76,2.64,1.05.78,2.24,1.48,3.61,2.1,1.38.61,2.97,1.17,4.84,1.59,1.89.41,4.09.69,5.88.8,1.79.11,3.19.07,4.63-.08,1.44-.16,2.92-.41,4.45-.82,3.05-.78,6.38-2.14,9.62-4.26,1.62-1.07,3.22-2.3,4.62-3.63,1.42-1.34,2.68-2.79,3.78-4.34l-2.57,12.17,23.87-.16,10.92-60.4-25.34-.15Z"/>
  </g>
</svg>