<?xml version="1.0" encoding="UTF-8"?>
<svg id="Livello_1" data-name="Livello 1" xmlns="http://www.w3.org/2000/svg" viewBox="0 0 841.89 137.72">
  <defs>
    <style>
      .cls-1 {
        fill-rule: evenodd;
      }

      .cls-1, .cls-2, .cls-3, .cls-4 {
        stroke-width: 0px;
      }

      .cls-1, .cls-3 {
        fill: #312783;
      }

      .cls-2 {
        fill: #e30613;
      }

      .cls-4 {
        fill: #fff;
      }
    </style>
  </defs>
  <g>
    <rect class="cls-2" x="487.85" y="83.06" width="310.02" height="41.09" rx="20.54" ry="20.54"/>
    <g>
      <path class="cls-4" d="m594.96,101.3c.09-.05.19-.1.32-.16.13-.05.29-.11.49-.16.21-.05.46-.1.74-.14.29-.03.61-.06.96-.06s.72.02,1.13.07c.41.05.84.13,1.32.27.48.13,1,.31,1.54.55.55.24,1.13.55,1.67.9l.65-3.86c-.78-.41-1.59-.76-2.41-1.02-.81-.26-1.62-.44-2.42-.54-.8-.11-1.58-.15-2.43-.11-.84.04-1.73.15-2.5.32-.77.18-1.42.42-2.03.72-.61.31-1.18.68-1.69,1.1-.51.43-.94.9-1.27,1.37-.33.47-.54.94-.67,1.38-.13.44-.18.86-.15,1.28.02.37.07.73.13,1.01s.15.48.23.65c.08.17.16.3.25.41.09.11.18.22.28.31.1.09.21.18.35.27.13.09.29.18.49.27.2.09.44.19.8.29.35.1.81.2,1.26.27.09.03.19.05.61.11.42.05,1.16.12,1.7.2.53.08.85.16,1.09.22.23.07.36.12.46.17.19.09.26.14.37.23.05.05.1.11.15.16.04.06.07.11.09.15.06.13.08.23.06.34,0,.04-.01.07-.03.12-.01.04-.04.08-.07.14-.04.05-.08.12-.17.2-.08.09-.19.19-.28.27-.09.07-.16.12-.25.16-.09.05-.2.11-.37.16-.16.06-.38.12-.72.19-.34.07-.8.14-1.41.18-.62.04-1.41.05-2.19.02-.36-.02-.72-.06-1.09-.11-.36-.05-.72-.12-1.08-.19-.36-.08-.7-.17-1.04-.28l-.79,3.96c1.16.29,2.34.51,3.43.63,1.09.13,2.1.16,3.01.13.91-.03,1.71-.11,2.52-.26.82-.14,1.65-.34,2.3-.54.65-.2,1.12-.42,1.53-.63.4-.22.74-.43,1.05-.67.31-.25.61-.52.89-.86.28-.34.55-.74.78-1.13.23-.39.4-.78.52-1.11.12-.32.18-.58.2-.81.03-.23.03-.42.02-.61-.04-.37-.14-.69-.31-1.04-.09-.17-.21-.35-.36-.54-.16-.18-.34-.38-.54-.56-.2-.18-.39-.33-.61-.47-.21-.13-.43-.25-.73-.38-.29-.13-.66-.28-1.28-.43-.63-.15-1.52-.3-2.41-.41-.36-.03-.73-.07-1-.1-.28-.03-.48-.07-.63-.09-.15-.03-.25-.07-.33-.1-.08-.03-.14-.06-.2-.1-.06-.03-.11-.07-.15-.1-.04-.04-.08-.07-.12-.11-.04-.04-.07-.09-.1-.14-.07-.1-.12-.26-.13-.4,0-.08-.01-.15,0-.21.02-.22.12-.43.36-.64.06-.04.12-.1.21-.15Z"/>
      <path class="cls-4" d="m614.7,109.24c-.22.02-.44.03-.71.03-.27,0-.58-.02-.83-.05-.25-.03-.43-.07-.58-.11-.15-.04-.27-.08-.36-.12-.1-.04-.18-.08-.25-.13-.07-.04-.12-.08-.18-.13-.05-.04-.09-.09-.13-.14-.04-.05-.07-.1-.1-.15-.03-.06-.05-.12-.07-.18-.04-.14-.05-.32-.02-.5l1.09-6.34h4.67l.81-4.11-4.43-.07.86-3.59-3.45.04c-.52.62-1.11,1.19-1.74,1.66-.63.48-1.3.87-2.07,1.2-.76.34-1.62.62-2.49.82l-.7,4.04h2.2l-1.55,7.02c-.09.41-.15.82-.16,1.14-.01.32.02.55.07.74.04.19.1.35.18.5.08.15.17.3.3.46.13.16.3.35.56.56.26.21.62.46.95.65.33.2.64.34,1,.48.36.13.79.26,1.32.35.53.09,1.17.16,1.75.19.58.02,1.1,0,1.62-.05.52-.06,1.04-.15,1.56-.29.51-.14,1.02-.31,1.5-.52l.53-3.63c-.18.06-.36.1-.56.14-.2.04-.4.07-.61.09Z"/>
      <path class="cls-4" d="m521.94,93.7l-10.11,11.02-3.97.04-3.6,4.11h3.72l-4.12,4.37,8.84-.03,3.65-4.34h7.87l-.81,4.37h7.42l3.58-19.6-12.47.06Zm3.08,11.08l-5.2-.05,6.83-8.19-1.63,8.25Z"/>
      <path class="cls-4" d="m630.99,101.69l.92-4.61c-.73-.11-1.47-.14-2.14-.07-.66.07-1.26.22-1.8.44-.55.22-1.05.5-1.5.89-.45.39-.85.87-1.17,1.4l.48-2.36-5.87.04-3,15.79,6.55.04,1.46-7.92c.06-.34.18-.68.35-.98.16-.3.36-.59.61-.85.25-.26.54-.5.89-.72.34-.22.73-.42,1.17-.58.44-.16.92-.29,1.44-.38.52-.08,1.07-.12,1.62-.11Z"/>
      <path class="cls-4" d="m587.45,104.79c.1-.58.17-1.24.19-1.75.02-.51-.03-.86-.09-1.17-.06-.3-.14-.55-.27-.89-.14-.33-.34-.73-.54-1.06-.21-.33-.41-.58-.61-.78-.2-.21-.39-.39-.58-.53-.19-.14-.36-.26-.6-.38-.22-.12-.5-.27-.9-.42-.41-.15-.94-.32-1.49-.46-.44-.13-.88-.22-1.35-.3-.46-.08-.94-.14-1.44-.17-.5-.03-1.01-.04-1.51-.03-.47,0-.94.01-1.41.06-.47.04-.93.11-1.39.19-.45.08-.9.19-1.42.35-.51.16-1.1.39-1.66.66-.56.27-1.1.6-1.6.96-.5.36-.96.77-1.32,1.14-.36.37-.62.7-.88,1.09-.26.39-.51.83-.74,1.41-.23.58-.43,1.3-.57,1.94-.14.64-.22,1.2-.25,1.69-.03.49-.02.92.02,1.3.04.39.1.73.19,1.07.13.57.31,1.13.49,1.55.18.42.36.7.54.94.17.23.33.43.53.61.2.19.43.38.69.55.26.17.54.33.87.48.33.15.7.28,1.18.42.47.13,1.05.26,1.87.34.82.09,1.88.13,2.78.13.89,0,1.62-.04,2.25-.11.63-.07,1.16-.18,1.63-.3.47-.12.88-.26,1.29-.42.41-.17.81-.38,1.25-.66.44-.27.92-.62,1.47-1.16.54-.54,1.14-1.29,1.66-2.07.29-.41.54-.84.77-1.28.23-.45.42-.91.58-1.39.16-.48.28-.97.38-1.55Zm-6.29,0c-.03.36-.11.71-.22,1.07-.17.53-.44,1.1-.72,1.5-.18.27-.36.48-.54.65-.18.17-.35.32-.57.47-.23.16-.5.33-.75.45-.25.13-.47.2-.67.27-.2.06-.38.1-.59.13-.2.03-.42.04-.64.04-.21,0-.43-.02-.63-.05-.21-.03-.42-.07-.62-.13-.25-.08-.5-.18-.71-.29-.22-.12-.4-.24-.56-.37-.17-.13-.3-.27-.42-.43-.06-.08-.11-.17-.16-.28-.05-.11-.11-.25-.14-.48-.04-.23-.05-.54-.05-.85,0-.2,0-.4.01-.58.02-.19.05-.36.08-.53.04-.17.09-.33.16-.54.08-.21.19-.45.31-.67.12-.22.25-.41.38-.58.13-.17.26-.32.44-.5.18-.17.42-.37.63-.52.22-.16.42-.27.61-.37.19-.1.37-.17.58-.25.21-.07.45-.14.67-.19.21-.05.4-.08.56-.09.17-.02.32-.02.47-.02.3,0,.61.04.89.1.28.06.54.15.78.25.23.1.44.22.63.37.13.09.25.2.35.32.21.22.34.44.43.66.03.08.06.16.08.26.02.1.03.23.02.43-.01.2-.05.48-.1.75Z"/>
      <path class="cls-4" d="m545.66,106.58c-.05.25-.14.5-.26.72-.12.23-.28.44-.45.62-.17.18-.37.34-.57.46-.2.13-.41.23-.63.31-.22.08-.44.14-.67.17-.24.04-.48.05-.71.04-.23,0-.43-.03-.6-.05-.17-.03-.32-.06-.45-.1-.12-.04-.23-.08-.32-.12-.09-.04-.17-.08-.24-.13-.07-.04-.13-.09-.18-.14-.05-.04-.1-.1-.15-.15-.04-.05-.08-.11-.11-.18-.03-.06-.05-.14-.08-.21-.02-.08-.03-.16-.03-.27,0-.1.01-.22.03-.33l1.78-9.84h-6.57s-2.12,10.74-2.12,10.74c-.1.49-.11,1.01-.07,1.45.04.45.15.83.3,1.17.14.34.33.63.54.89.21.26.45.48.72.69.28.2.59.39.95.55.36.16.78.31,1.27.41.49.11,1.07.18,1.54.21.47.03.84.02,1.21-.02.38-.04.76-.11,1.16-.21.8-.2,1.67-.56,2.52-1.11.42-.28.84-.6,1.21-.95.37-.35.7-.73.99-1.14l-.67,3.18,6.25-.04,2.86-15.8-6.63-.04-1.8,9.21Z"/>
      <path class="cls-4" d="m563.94,109.45c-.26,0-.55-.03-.79-.05-.23-.03-.42-.07-.57-.12-.15-.04-.27-.08-.36-.13-.1-.04-.18-.09-.25-.13-.07-.04-.13-.09-.19-.14-.05-.05-.1-.1-.14-.15-.04-.05-.08-.11-.11-.17-.03-.06-.06-.13-.08-.21-.02-.08-.04-.16-.04-.26,0-.1,0-.22.02-.33l1.01-6.29,4.87-.05.79-4-4.37-.04.62-3.61h-3.22c-.51.61-1.08,1.18-1.7,1.67-.62.49-1.27.89-2.02,1.25-.75.36-1.58.67-2.44.89l-.81,3.88,2.01-.04-1.43,7.69c-.04.26-.07.53-.04.78.02.26.08.5.17.74.09.24.21.47.38.7.16.23.36.45.61.67.25.22.54.43.88.62.34.2.73.37,1.15.52.42.15.87.26,1.4.34.53.08,1.14.13,1.8.11.65-.01,1.34-.09,2.05-.24.71-.15,1.43-.38,2.13-.66l.78-3.6c-.44.18-.9.29-1.36.33-.24.02-.47.03-.73.02Z"/>
      <polygon class="cls-4" points="692.24 93.54 688.47 113.25 695.64 113.27 699.12 93.53 692.24 93.54"/>
      <path class="cls-4" d="m717.16,99.69c-.2-.36-.43-.66-.68-.93-.25-.27-.52-.51-.81-.73-.3-.22-.62-.41-.99-.59-.37-.18-.78-.34-1.25-.48-.48-.14-1.03-.27-1.68-.35-.66-.08-1.43-.13-2.19-.12-1.28.02-2.56.17-3.63.4-1.07.24-1.93.57-2.73.98-.8.42-1.55.92-2.27,1.64-.72.72-1.41,1.66-1.91,2.53-.5.87-.82,1.68-1.01,2.44-.19.76-.24,1.47-.2,2.16.04.68.17,1.32.43,2.01.26.68.65,1.39,1.09,1.97.44.58.92,1.03,1.44,1.4.51.37,1.06.67,1.68.91.62.25,1.31.44,2.14.56.83.12,1.79.16,2.78.12.99-.04,2.02-.18,2.95-.4.94-.22,1.79-.51,2.61-.91.82-.4,1.62-.9,2.36-1.47l.49-3.25c-.57.39-1.17.73-1.78,1.01-.6.28-1.21.51-1.78.66-.57.16-1.1.27-1.59.33-.49.06-.94.08-1.38.08-.44,0-.87-.05-1.25-.11-.38-.06-.7-.13-.98-.21-.28-.09-.51-.18-.72-.27-.21-.1-.39-.2-.55-.31-.16-.11-.3-.22-.43-.34-.13-.13-.24-.26-.34-.4-.1-.14-.2-.3-.27-.47-.08-.17-.14-.36-.18-.56h12.12c.46-.78.84-1.6,1.06-2.29.22-.69.28-1.24.27-1.86-.02-.62-.11-1.3-.28-1.96-.13-.42-.3-.83-.5-1.18Zm-11.91,3.4c.09-.2.21-.39.34-.57.14-.18.29-.35.47-.5.18-.16.37-.3.6-.42.22-.13.47-.24.73-.33.26-.09.53-.17.81-.22.28-.06.56-.09.88-.09.32,0,.67.02.98.06.31.05.57.12.81.2.24.08.45.18.65.3.2.13.4.27.56.44.17.17.31.35.43.54.11.2.19.41.24.62l-7.5-.03Z"/>
      <path class="cls-4" d="m688.88,100.55c0-.19-.03-.37-.07-.53-.04-.16-.09-.31-.17-.46-.14-.29-.34-.56-.63-.85-.15-.14-.34-.29-.58-.46-.24-.17-.55-.35-1-.56-.45-.2-1.04-.43-1.64-.61-.48-.16-.97-.29-1.53-.39-.56-.1-1.19-.19-1.9-.23-.72-.04-1.53-.04-2.43.02-.9.06-1.89.18-2.89.37-1.01.19-2.02.45-3.01.76l-.56,4.18c1.26-.33,2.54-.6,3.55-.75,1.02-.15,1.77-.2,2.39-.2.62,0,1.1.03,1.57.1.41.03.81.09,1.1.14.28.06.44.11.56.16.12.05.21.09.28.13.07.04.13.08.17.12.05.04.09.08.13.12.04.05.07.09.1.14.03.05.05.1.08.17.02.06.04.13.04.21,0,.08,0,.18,0,.25,0,.14-.04.21-.1.32-.06.11-.14.2-.27.31-.07.06-.15.11-.25.18-.11.06-.25.14-.46.23-.21.09-.49.19-.92.3-.44.1-1.03.21-1.8.32-.77.11-1.71.22-2.65.32-.82.1-1.64.24-2.3.4-.66.16-1.16.33-1.58.5-.41.17-.75.33-1.03.49-.28.17-.51.33-.71.49-.2.17-.38.34-.53.52-.15.18-.28.36-.4.57-.11.2-.21.41-.29.65-.07.24-.13.5-.16.8-.03.29-.02.63.02.96.04.34.12.66.24.96.11.29.26.54.42.77.17.22.35.43.57.62.21.18.46.35.74.51.28.15.59.3.96.42.37.12.79.23,1.28.3.5.07,1.06.11,1.6.11.54,0,1.05-.05,1.59-.14.53-.1,1.08-.24,1.64-.45.55-.21,1.12-.47,1.66-.8.54-.33,1.05-.71,1.53-1.14l-.3,2.39,5.82-.03,2.08-12.1c.04-.2.05-.41.05-.6Zm-7.38,7.09c-.15.27-.34.53-.55.79-.22.25-.46.49-.69.69-.23.19-.43.33-.62.45-.19.11-.36.2-.52.27-.16.07-.31.12-.46.16-.15.04-.3.07-.44.09-.3.04-.58.05-.92.01-.18-.02-.37-.05-.52-.09-.15-.04-.27-.08-.37-.11-.1-.04-.18-.08-.24-.11-.07-.04-.12-.08-.17-.12-.05-.04-.09-.08-.13-.12-.04-.04-.07-.1-.11-.15-.03-.06-.05-.12-.08-.18-.02-.07-.04-.15-.05-.25-.01-.1-.01-.21,0-.32,0-.11.03-.21.06-.3.03-.09.07-.17.1-.24.04-.07.08-.13.14-.19.05-.06.11-.12.17-.17.07-.05.14-.11.25-.17.11-.07.26-.15.52-.25.26-.09.65-.2,1.03-.28.74-.17,1.47-.34,2.03-.48.56-.14.94-.24,1.25-.34.32-.1.56-.19.81-.29-.03.57-.19,1.16-.5,1.71Z"/>
      <path class="cls-4" d="m648.66,101.02c-.01-.3-.06-.58-.14-.83-.07-.25-.18-.49-.32-.73-.14-.25-.32-.5-.51-.72-.2-.22-.4-.42-.63-.59-.22-.18-.46-.34-.74-.48-.28-.15-.58-.29-.99-.43-.4-.15-.9-.3-1.67-.42-.77-.13-1.81-.23-2.86-.27-.86-.06-1.72-.06-2.57-.02-.85.04-1.68.14-2.53.28-.85.15-1.71.35-2.55.61l-.71,4.23c.9-.24,1.81-.43,2.64-.57.83-.13,1.59-.2,2.21-.22.62-.03,1.13-.02,1.62.03.46.02.93.06,1.26.11.33.05.54.11.7.16.16.05.28.1.38.15.1.05.18.09.24.14.07.05.13.09.18.14.05.05.09.1.13.15.04.06.07.11.1.17.03.06.05.13.07.21.02.08.03.18.04.27,0,.09,0,.17-.02.23-.01.07-.03.13-.06.19-.06.16-.17.3-.36.45-.06.05-.13.09-.22.13-.08.05-.19.09-.33.14-.14.06-.32.11-.59.16-.26.05-.62.09-1.01.14-.38.04-.81.09-1.67.19-.85.1-2.14.25-3.09.39-.95.14-1.56.27-2.04.4-.48.14-.83.28-1.16.43-.33.16-.63.33-.99.55-.35.22-.75.5-1.07.87-.32.37-.58.84-.74,1.29-.16.45-.25.89-.23,1.32.01.43.12.87.34,1.31.23.45.58.91.98,1.29.21.2.44.38.67.54.23.16.48.3.73.42.26.12.52.22.8.31.28.09.58.16.89.21.32.05.66.09,1.02.1.37.02.76,0,1.18-.04.42-.04.87-.1,1.33-.21.46-.1.94-.25,1.37-.41.43-.16.82-.34,1.19-.54.36-.2.7-.42,1-.66.3-.24.57-.48.82-.76l-.44,2.4h5.98s2.26-11.27,2.26-11.27c.06-.31.08-.63.07-.93Zm-7.27,5.93c-.1.34-.25.67-.45.98-.2.31-.43.59-.71.84-.25.24-.52.45-.76.62-.24.16-.44.27-.63.36-.19.09-.36.15-.52.2-.16.05-.32.08-.54.12-.22.03-.51.06-.74.07-.23,0-.39,0-.52-.02-.14-.02-.24-.04-.34-.07-.1-.03-.19-.06-.28-.11-.15-.07-.29-.16-.41-.27-.12-.1-.21-.21-.29-.33-.08-.11-.13-.23-.16-.36-.02-.08-.02-.15-.02-.24,0-.08.02-.17.05-.26.03-.1.07-.2.15-.32.07-.12.17-.24.28-.36.07-.07.15-.13.25-.21.1-.08.22-.16.44-.26.22-.09.53-.2.85-.28.15-.05.31-.09.51-.13.2-.04.46-.07.69-.11.23-.03.44-.07.69-.12.24-.06.53-.13.82-.21.29-.08.58-.17.88-.27.3-.1.6-.21.89-.32.01.35-.04.71-.13,1.05Z"/>
      <path class="cls-4" d="m664.32,93.59l-1.13,5.82c-.12-.24-.25-.47-.39-.67-.14-.19-.29-.36-.44-.49-.15-.14-.3-.26-.46-.37-.16-.11-.33-.2-.53-.29-.19-.09-.4-.17-.66-.24-.26-.08-.58-.15-1-.21-.42-.06-.95-.09-1.47-.11-.52,0-1.03.01-1.51.06-.48.05-.92.12-1.33.22-.42.1-.82.23-1.2.38-.38.15-.76.33-1.14.55-.37.22-.75.48-1.16.79-.4.31-.84.67-1.24,1.14-.4.47-.77,1.04-1.14,1.77-.37.73-.75,1.63-.97,2.55-.22.92-.28,1.88-.22,2.72.07.84.27,1.58.49,2.19.23.61.49,1.09.73,1.46.25.37.47.63.69.84.22.22.42.39.63.53.21.14.42.27.66.39.24.11.5.22.81.31.31.1.68.19,1.14.26.47.07,1.03.13,1.59.14.81.03,1.63-.03,2.39-.19.77-.15,1.49-.4,2.18-.75.69-.35,1.35-.81,1.93-1.35l-.32,2.22,6.23-.04,3.88-19.67-7.05.03Zm-1.58,12.27c-.1.33-.25.65-.45.95-.2.3-.46.59-.75.85-.29.26-.6.5-.88.68-.28.17-.52.29-.74.38-.21.09-.4.15-.58.2-.17.04-.34.07-.5.09-.16.02-.32.03-.53.01-.21,0-.46-.03-.71-.08-.24-.05-.47-.11-.69-.2-.22-.09-.43-.19-.61-.31-.19-.12-.36-.25-.51-.41-.15-.15-.29-.33-.4-.52-.11-.19-.2-.41-.26-.63-.02-.08-.04-.17-.05-.28-.01-.11-.02-.25,0-.46.02-.21.08-.5.15-.79.09-.42.22-.84.35-1.15.14-.31.27-.53.4-.71.13-.18.26-.32.38-.44.13-.12.26-.23.45-.36.19-.13.44-.28.69-.4.25-.12.49-.21.72-.28.23-.07.45-.12.67-.15.21-.03.42-.05.69-.04.27,0,.6.03.9.08.29.05.54.13.77.21.23.09.42.19.6.31.1.07.2.14.29.22.09.08.18.18.25.28.08.1.15.22.22.37.07.15.14.33.2.6.05.26.09.6.08.94,0,.34-.05.68-.15,1.01Z"/>
      <path class="cls-4" d="m729.23,93.67c-1.73,1.35-4.68,2.12-7.15,2.31l-.1,4.01c.95,0,3.59-.32,4.61-.77l-2.44,13.68h6l3.46-19.23h-4.37Z"/>
      <path class="cls-4" d="m742.89,93.32c-3.93,0-8.34,2.12-8.34,7.46,0,3.16,2.51,4.65,5.15,4.65,1.69,0,2.98-.4,3.86-1.12-.68,3.67-1.9,5.31-3.35,5.31-1.56,0-1.76-1.2-1.8-2.34l-5.52,1.17c.34,3.43,3.25,4.75,7.01,4.75,7.59,0,10.03-5.84,10.03-12.8,0-4.2-2.03-7.09-7.05-7.09Zm1.05,7.89c-.47.48-1.15.72-1.56.72-.98,0-1.59-.58-1.59-2.02,0-1.78.61-3,1.93-3,1.02,0,1.36.93,1.36,2.28,0,.64-.03,1.27-.14,2.02Z"/>
      <path class="cls-4" d="m759.29,106.94c5.56-4.67,6.88-6.32,6.88-8.95s-2-4.67-6.68-4.67c-4.2,0-7.62,1.41-8.37,5.52l5.42.72c.51-1.67.98-2.5,2.2-2.5.78,0,1.19.48,1.19,1.3,0,1.41-1.42,2.58-4.91,5.9l-4.98,4.7-.78,3.93h14.57l.78-3.98h-7.66l2.34-1.97Z"/>
      <path class="cls-4" d="m779.59,104.98l2-11.31h-7.79l-9.25,11.77-.68,3.4h9.18l-.74,4.06h5.83l.71-4.06h2.27l.75-3.85h-2.27Zm-5.83,0h-4.1l5.29-7.09-1.19,7.09Z"/>
    </g>
  </g>
  <g>
    <path class="cls-1" d="m94.12,13.58l-29.62,32.31-10.2.1-9.25,10.57h9.56l-10.6,11.23,22.71-.07,9.38-11.16h20.22l-2.08,11.23h19.08l9.9-54.2h-29.1Zm4.28,32.45l-13.37-.14,17.55-21.06-4.18,21.19Z"/>
    <path class="cls-3" d="m117.77,67.79l7.18-36.95h13.74l-7.18,36.95h-13.74Zm17.33-54.2c5.88,0,6.64,2.75,5.88,6.34-.69,3.59-2.9,6.34-8.4,6.34s-6.72-2.75-6.03-6.34c.76-3.59,2.67-6.34,8.55-6.34Z"/>
    <path class="cls-3" d="m192.05,68.63c-2.75,0-6.26-.92-8.25-2.75l-3.28,17.18h-13.89l10.15-52.22h11.68v3.74c3.74-3.36,7.71-4.66,11.45-4.66,4.81,0,16.19,3.51,12.98,19.85-2.29,12.06-12.37,18.86-20.84,18.86Zm2.14-28.4c-2.29,0-4.35.76-5.65,1.6l-3.05,15.57c1.22.84,2.98,1.3,4.5,1.3,5.04,0,8.78-4.66,9.7-9.24.99-5.04-1.22-9.24-5.5-9.24Z"/>
    <path class="cls-3" d="m381.02,40.23c5.65.92,7.86,6.41,6.87,11.68-2.14,11.15-10.76,15.88-22.14,15.88h-23.44l10.15-52.6h24.28c5.19,0,15.35,2.9,12.9,15.5-.53,2.67-3.05,8.17-8.63,9.54Zm-19.85,6.34l-1.98,9.85h8.7c2.37,0,4.58-1.76,5.19-4.73.69-3.82-1.45-5.11-3.28-5.11h-8.63Zm8.47-10.15c2.9,0,4.66-2.37,5.19-5.04.53-2.75-.76-4.81-3.28-4.81h-6.57l-1.91,9.85h6.57Z"/>
    <path class="cls-3" d="m504.91,53.28c-.31,1.6-.54,2.98-.54,2.98h24.2l-2.21,11.53h-38.51s.34-3.05,2.01-12.06l7.86-40.54h38.78l-2.21,11.53h-24.2l-1.6,8.4h22.06l-2.21,11.3h-22.06l-1.37,6.87Z"/>
    <path class="cls-3" d="m527.88,67.79l17.18-18.63-9.77-18.32h16.03l3.59,9.92,7.71-9.92h16.03l-17.03,18.32,10,18.63h-16.11l-3.82-10.31-7.79,10.31h-16.03Z"/>
    <path class="cls-3" d="m596.87,68.63c-2.75,0-6.26-.92-8.25-2.75l-3.28,17.18h-13.89l10.15-52.22h11.68v3.74c3.74-3.36,7.71-4.66,11.45-4.66,4.81,0,16.19,3.51,12.98,19.85-2.29,12.06-12.37,18.86-20.84,18.86Zm2.14-28.4c-2.29,0-4.35.76-5.65,1.6l-3.05,15.57c1.22.84,2.98,1.3,4.5,1.3,5.04,0,8.78-4.66,9.7-9.24.99-5.04-1.22-9.24-5.5-9.24Z"/>
    <path class="cls-1" d="m137.92,67.69l6.95-36.58,13.61-.1-1.1,5.46c.74-1.24,1.66-2.35,2.71-3.25,1.04-.89,2.21-1.55,3.48-2.06,1.27-.51,2.64-.86,4.18-1.01,1.55-.15,3.27-.09,4.95.17l-2.13,10.69c-1.28-.02-2.55.07-3.75.26-1.2.21-2.33.51-3.34.89-1.02.38-1.92.84-2.72,1.34-.8.51-1.47,1.07-2.06,1.67-.58.61-1.05,1.27-1.42,1.97-.38.71-.66,1.48-.81,2.28l-3.39,18.35-15.17-.09h0Z"/>
    <path class="cls-1" d="m262.86,67.69l6.95-36.58,13.61-.1-1.1,5.46c.74-1.24,1.66-2.35,2.71-3.25,1.04-.89,2.21-1.55,3.48-2.06,1.27-.51,2.64-.86,4.18-1.01,1.55-.15,3.27-.09,4.95.17l-2.13,10.69c-1.28-.02-2.55.07-3.75.26-1.2.21-2.33.51-3.34.89-1.02.38-1.92.84-2.72,1.34-.8.51-1.47,1.07-2.06,1.67-.58.61-1.05,1.27-1.42,1.97-.38.71-.66,1.48-.81,2.28l-3.39,18.35-15.17-.09h0Z"/>
    <path class="cls-1" d="m618.35,67.69l6.95-36.58,13.61-.1-1.1,5.46c.74-1.24,1.66-2.35,2.71-3.25,1.04-.89,2.21-1.55,3.48-2.06,1.27-.51,2.64-.86,4.18-1.01,1.55-.15,3.27-.09,4.95.17l-2.13,10.69c-1.28-.02-2.55.07-3.75.26-1.2.21-2.33.51-3.34.89-1.02.38-1.92.84-2.72,1.34-.8.51-1.47,1.07-2.06,1.67-.58.61-1.05,1.27-1.42,1.97-.38.71-.66,1.48-.81,2.28l-3.39,18.35-15.17-.09h0Z"/>
    <path class="cls-1" d="m330.34,30.32l-10.14-.1,1.43-8.36-7.47-.03c-1.18,1.45-2.51,2.77-3.94,3.9-1.43,1.13-2.95,2.06-4.68,2.89-1.73.82-3.67,1.54-5.66,2.07l-1.88,8.98,4.66-.08-3.31,17.81c-.1.6-.15,1.23-.1,1.82.05.59.18,1.15.39,1.71.21.55.5,1.09.88,1.62.37.53.84,1.05,1.42,1.55.57.5,1.25.99,2.05,1.43.79.45,1.69.85,2.67,1.2.97.34,2.02.61,3.25.8,1.23.18,2.65.29,4.16.26,1.51-.03,3.11-.21,4.75-.56,1.64-.35,3.32-.87,4.93-1.53l1.8-8.33c-1.01.41-2.08.67-3.15.77-.55.05-1.08.07-1.7.05-.61,0-1.28-.06-1.82-.13-.54-.07-.97-.16-1.31-.27-.34-.09-.61-.2-.84-.29-.23-.1-.42-.2-.58-.31-.16-.1-.3-.21-.43-.32-.12-.11-.24-.22-.33-.35-.1-.13-.19-.26-.26-.4-.08-.14-.14-.3-.19-.48-.04-.18-.08-.38-.1-.6,0-.24,0-.5.05-.76l2.33-14.57,11.27-.12,1.84-9.27h0Z"/>
    <path class="cls-1" d="m264.06,40.3c-.14-.7-.31-1.29-.62-2.05-.32-.75-.78-1.7-1.24-2.45-.48-.75-.95-1.33-1.41-1.82-.46-.49-.91-.89-1.35-1.23-.43-.33-.84-.59-1.38-.89-.52-.29-1.15-.62-2.09-.97-.94-.36-2.18-.75-3.45-1.07-1.01-.29-2.05-.52-3.12-.7-1.07-.18-2.19-.32-3.33-.4-1.15-.08-2.33-.1-3.51-.07-1.09-.02-2.17.03-3.26.13-1.08.1-2.16.24-3.21.44-1.05.2-2.09.44-3.28.82-1.19.37-2.54.9-3.84,1.54-1.3.63-2.55,1.38-3.71,2.22-1.16.84-2.22,1.78-3.07,2.64-.83.85-1.44,1.62-2.04,2.53-.6.9-1.18,1.93-1.72,3.28-.53,1.35-1.01,3.01-1.32,4.49-.33,1.48-.51,2.77-.59,3.92-.08,1.14-.05,2.13.05,3.02.08.9.23,1.69.44,2.48.3,1.32.72,2.62,1.14,3.59.42.98.84,1.63,1.24,2.18.4.54.77.99,1.22,1.42.46.43,1,.87,1.6,1.28.6.4,1.25.77,2.02,1.12.76.34,1.62.66,2.73.97,1.1.3,2.44.59,4.34.79,1.9.2,4.36.3,6.43.29,2.07,0,3.76-.09,5.22-.26,1.46-.17,2.68-.42,3.78-.69,1.09-.28,2.05-.6,2.99-.98.94-.4,1.87-.88,2.9-1.52,1.02-.63,2.14-1.44,3.39-2.69,1.25-1.26,2.64-2.98,3.84-4.81.66-.95,1.26-1.95,1.78-2.97.52-1.04.96-2.11,1.33-3.22.37-1.11.65-2.26.88-3.6.23-1.35.4-2.86.43-4.04.04-1.18-.07-2-.2-2.71Zm-14.57,5.03c-.02.46-.11,1.1-.23,1.73-.08.83-.25,1.65-.51,2.48-.4,1.22-1.03,2.54-1.66,3.48-.42.64-.84,1.11-1.25,1.5-.41.4-.8.73-1.33,1.09-.52.37-1.16.76-1.74,1.05-.58.29-1.08.47-1.55.62-.47.14-.89.23-1.36.3-.47.06-.97.09-1.47.09-.5,0-.99-.04-1.47-.11-.49-.07-.96-.17-1.43-.3-.58-.18-1.15-.41-1.65-.68-.5-.27-.94-.56-1.31-.86-.38-.31-.69-.63-.97-.99-.14-.19-.26-.38-.37-.64-.12-.26-.25-.58-.33-1.1-.08-.52-.13-1.25-.11-1.97-.02-.46,0-.92.03-1.35.04-.43.11-.83.19-1.23.09-.39.2-.77.38-1.25.18-.48.44-1.05.71-1.55.28-.5.58-.95.88-1.34.3-.4.61-.75,1.03-1.15.43-.4.96-.85,1.46-1.21.51-.37.97-.63,1.42-.86.45-.23.87-.4,1.35-.58.49-.17,1.05-.33,1.55-.45.5-.11.92-.17,1.31-.22.39-.04.74-.06,1.08-.04.7.02,1.4.09,2.06.24.65.14,1.26.34,1.81.58.54.24,1.01.52,1.45.86.29.22.58.47.81.73.48.52.8,1.02.99,1.53.08.18.13.36.18.61.05.24.08.53.06,1Z"/>
    <path class="cls-1" d="m436.2,56.83l-1.83,9.16c2.68.68,5.41,1.19,7.94,1.47,2.53.29,4.87.37,6.97.3,2.1-.06,3.96-.26,5.85-.6,1.89-.33,3.82-.78,5.33-1.25,1.51-.47,2.6-.96,3.54-1.46.93-.5,1.71-.99,2.43-1.55.72-.57,1.4-1.21,2.06-1.98.65-.78,1.28-1.71,1.8-2.62.53-.91.93-1.81,1.21-2.57.27-.75.41-1.35.47-1.87.07-.53.08-.98.04-1.41-.09-.87-.31-1.6-.73-2.4-.22-.4-.48-.81-.83-1.25-.36-.43-.8-.89-1.25-1.29-.45-.41-.91-.76-1.4-1.08-.49-.31-1.01-.58-1.69-.88-.68-.31-1.52-.64-2.98-.99-1.45-.35-3.52-.7-5.59-.96-.84-.07-1.68-.16-2.33-.24-.65-.08-1.11-.15-1.45-.22-.35-.08-.58-.16-.77-.23-.19-.07-.33-.15-.47-.22-.13-.08-.25-.15-.35-.23-.1-.09-.19-.17-.27-.26-.09-.1-.15-.2-.22-.33-.15-.24-.27-.59-.31-.92-.02-.17-.02-.34,0-.49.04-.51.28-1,.83-1.48.13-.1.28-.22.49-.34.2-.11.44-.24.75-.36.3-.12.67-.25,1.14-.37.49-.12,1.06-.23,1.72-.31.67-.08,1.4-.13,2.21-.13s1.68.04,2.62.17c.94.11,1.95.31,3.06.62,1.1.3,2.31.71,3.57,1.28,1.27.56,2.61,1.27,3.87,2.08l1.51-8.93c-1.8-.95-3.69-1.76-5.58-2.35-1.88-.6-3.76-1.02-5.61-1.26-1.85-.25-3.67-.34-5.62-.25-1.95.08-4.01.35-5.8.75-1.79.42-3.29.96-4.71,1.68-1.42.71-2.74,1.57-3.91,2.55-1.17.99-2.19,2.09-2.94,3.18-.75,1.09-1.25,2.17-1.56,3.19-.3,1.03-.42,2-.36,2.97.04.85.15,1.69.3,2.35.15.66.34,1.12.53,1.5.19.38.38.69.58.95.2.26.42.5.66.72.24.22.5.43.81.62.31.2.67.41,1.13.62.46.22,1.03.45,1.85.67.81.24,1.87.46,2.93.63.22.08.44.13,1.42.25.97.11,2.7.29,3.94.47,1.23.18,1.98.37,2.52.51.52.16.83.27,1.07.38.44.2.61.32.85.54.11.11.24.25.35.37.1.13.16.25.22.35.15.3.18.54.14.79,0,.08-.03.17-.07.28-.03.09-.08.19-.16.33-.09.12-.19.27-.38.47-.18.2-.45.44-.65.62-.21.17-.37.27-.57.38-.21.12-.46.25-.86.38-.38.14-.89.29-1.66.44-.78.16-1.84.32-3.28.41-1.43.08-3.26.11-5.07.04-.84-.05-1.68-.13-2.52-.26-.83-.12-1.68-.27-2.5-.45-.82-.19-1.62-.4-2.42-.64h0Z"/>
    <path class="cls-1" d="m701.43,56.83l-1.83,9.16c2.68.68,5.41,1.19,7.94,1.47,2.53.29,4.87.37,6.97.3,2.1-.06,3.96-.26,5.85-.6,1.89-.33,3.82-.78,5.33-1.25,1.51-.47,2.6-.96,3.54-1.46.93-.5,1.71-.99,2.43-1.55.72-.57,1.4-1.21,2.06-1.98.65-.78,1.28-1.71,1.8-2.62.53-.91.93-1.81,1.21-2.57.27-.75.41-1.35.47-1.87.07-.53.08-.98.04-1.41-.09-.87-.31-1.6-.73-2.4-.22-.4-.48-.81-.83-1.25-.36-.43-.8-.89-1.25-1.29-.45-.41-.91-.76-1.4-1.08-.49-.31-1.01-.58-1.69-.88-.68-.31-1.52-.64-2.98-.99-1.45-.35-3.52-.7-5.59-.96-.84-.07-1.68-.16-2.33-.24-.65-.08-1.11-.15-1.45-.22-.35-.08-.58-.16-.77-.23-.19-.07-.33-.15-.47-.22-.13-.08-.25-.15-.35-.23-.1-.09-.19-.17-.27-.26-.09-.1-.15-.2-.22-.33-.15-.24-.27-.59-.31-.92-.02-.17-.02-.34,0-.49.04-.51.28-1,.83-1.48.13-.1.28-.22.49-.34.2-.11.44-.24.75-.36.3-.12.67-.25,1.14-.37.49-.12,1.06-.23,1.72-.31.67-.08,1.4-.13,2.21-.13s1.68.04,2.62.17c.94.11,1.95.31,3.06.62,1.1.3,2.31.71,3.57,1.28,1.27.56,2.61,1.27,3.87,2.08l1.51-8.93c-1.8-.95-3.69-1.76-5.58-2.35-1.88-.6-3.76-1.02-5.61-1.26-1.85-.25-3.67-.34-5.62-.25-1.95.08-4.01.35-5.8.75-1.79.42-3.29.96-4.71,1.68-1.42.71-2.74,1.57-3.91,2.55-1.17.99-2.19,2.09-2.94,3.18-.75,1.09-1.25,2.17-1.56,3.19-.3,1.03-.42,2-.36,2.97.04.85.15,1.69.3,2.35.15.66.34,1.12.53,1.5.19.38.38.69.58.95.2.26.42.5.66.72.24.22.5.43.81.62.31.2.67.41,1.13.62.46.22,1.03.45,1.85.67.81.24,1.87.46,2.93.63.22.08.44.13,1.42.25.97.11,2.7.29,3.94.47,1.23.18,1.98.37,2.52.51.52.16.83.27,1.07.38.44.2.61.32.85.54.11.11.24.25.35.37.1.13.16.25.22.35.15.3.18.54.14.79,0,.08-.03.17-.07.28-.03.09-.08.19-.16.33-.09.12-.19.27-.38.47-.18.2-.45.44-.65.62-.21.17-.37.27-.57.38-.21.12-.46.25-.86.38-.38.14-.89.29-1.66.44-.78.16-1.84.32-3.28.41-1.43.08-3.26.11-5.07.04-.84-.05-1.68-.13-2.52-.26-.83-.12-1.68-.27-2.5-.45-.82-.19-1.62-.4-2.42-.64h0Z"/>
    <path class="cls-1" d="m740.86,56.83l-1.83,9.16c2.68.68,5.41,1.19,7.94,1.47,2.53.29,4.87.37,6.97.3,2.1-.06,3.96-.26,5.85-.6,1.89-.33,3.82-.78,5.33-1.25,1.51-.47,2.6-.96,3.54-1.46.93-.5,1.71-.99,2.43-1.55.72-.57,1.4-1.21,2.06-1.98.65-.78,1.28-1.71,1.8-2.62.53-.91.93-1.81,1.21-2.57.27-.75.41-1.35.47-1.87.07-.53.08-.98.04-1.41-.09-.87-.31-1.6-.73-2.4-.22-.4-.48-.81-.83-1.25-.36-.43-.8-.89-1.25-1.29-.45-.41-.91-.76-1.4-1.08-.49-.31-1.01-.58-1.69-.88-.68-.31-1.52-.64-2.98-.99-1.45-.35-3.52-.7-5.59-.96-.84-.07-1.68-.16-2.33-.24-.65-.08-1.11-.15-1.45-.22-.35-.08-.58-.16-.77-.23-.19-.07-.33-.15-.47-.22-.13-.08-.25-.15-.35-.23-.1-.09-.19-.17-.27-.26-.09-.1-.15-.2-.22-.33-.15-.24-.27-.59-.31-.92-.02-.17-.02-.34,0-.49.04-.51.28-1,.83-1.48.13-.1.28-.22.49-.34.2-.11.44-.24.75-.36.3-.12.67-.25,1.14-.37.49-.12,1.06-.23,1.72-.31.67-.08,1.4-.13,2.21-.13s1.68.04,2.62.17c.94.11,1.95.31,3.06.62,1.1.3,2.31.71,3.57,1.28,1.27.56,2.61,1.27,3.87,2.08l1.51-8.93c-1.8-.95-3.69-1.76-5.58-2.35-1.88-.6-3.76-1.02-5.61-1.26-1.85-.25-3.67-.34-5.62-.25-1.95.08-4.01.35-5.8.75-1.79.42-3.29.96-4.71,1.68-1.42.71-2.74,1.57-3.91,2.55-1.17.99-2.19,2.09-2.94,3.18-.75,1.09-1.25,2.17-1.56,3.19-.3,1.03-.42,2-.36,2.97.04.85.15,1.69.3,2.35.15.66.34,1.12.53,1.5.19.38.38.69.58.95.2.26.42.5.66.72.24.22.5.43.81.62.31.2.67.41,1.13.62.46.22,1.03.45,1.85.67.81.24,1.87.46,2.93.63.22.08.44.13,1.42.25.97.11,2.7.29,3.94.47,1.23.18,1.98.37,2.52.51.52.16.83.27,1.07.38.44.2.61.32.85.54.11.11.24.25.35.37.1.13.16.25.22.35.15.3.18.54.14.79,0,.08-.03.17-.07.28-.03.09-.08.19-.16.33-.09.12-.19.27-.38.47-.18.2-.45.44-.65.62-.21.17-.37.27-.57.38-.21.12-.46.25-.86.38-.38.14-.89.29-1.66.44-.78.16-1.84.32-3.28.41-1.43.08-3.26.11-5.07.04-.84-.05-1.68-.13-2.52-.26-.83-.12-1.68-.27-2.5-.45-.82-.19-1.62-.4-2.42-.64h0Z"/>
    <path class="cls-1" d="m697.72,38.24c-.29-.97-.7-1.91-1.16-2.74-.47-.83-1-1.53-1.57-2.16-.57-.62-1.2-1.18-1.88-1.69-.69-.5-1.44-.96-2.29-1.37-.85-.42-1.8-.79-2.91-1.12-1.11-.33-2.38-.62-3.9-.81-1.53-.19-3.31-.29-5.08-.29-2.96.04-5.92.39-8.4.93-2.48.55-4.47,1.32-6.33,2.28-1.86.97-3.59,2.13-5.25,3.79-1.67,1.67-3.27,3.84-4.44,5.86-1.17,2.02-1.9,3.88-2.33,5.65-.43,1.76-.56,3.41-.47,4.99.09,1.57.4,3.06,1,4.65.61,1.57,1.51,3.23,2.52,4.57,1.01,1.35,2.13,2.38,3.33,3.25,1.19.86,2.46,1.55,3.9,2.12,1.43.58,3.04,1.02,4.96,1.3,1.92.28,4.14.38,6.44.28,2.3-.1,4.67-.43,6.84-.92,2.17-.5,4.14-1.19,6.04-2.11,1.9-.92,3.75-2.07,5.46-3.4l1.15-7.54c-1.32.89-2.72,1.69-4.13,2.34-1.4.65-2.81,1.17-4.13,1.54-1.32.38-2.55.63-3.68.77-1.14.14-2.17.19-3.21.18-1.02-.02-2.03-.12-2.9-.25-.87-.13-1.62-.31-2.27-.5-.65-.2-1.19-.41-1.68-.63-.49-.22-.91-.47-1.28-.72-.37-.25-.7-.52-1-.8-.29-.29-.56-.59-.79-.92-.24-.33-.45-.69-.62-1.09-.18-.4-.32-.84-.42-1.3l28.08-.03c1.07-1.77,1.95-3.68,2.45-5.28.51-1.6.66-2.88.61-4.3-.04-1.43-.25-3.02-.65-4.55Zm-28.77,5.14c.22-.47.48-.91.79-1.33.32-.41.68-.8,1.09-1.15.41-.36.87-.69,1.38-.97.5-.3,1.08-.55,1.68-.77.61-.22,1.24-.4,1.88-.51.65-.13,1.31-.21,2.04-.22.74,0,1.56.05,2.28.15.71.11,1.33.27,1.87.46.55.19,1.04.41,1.5.7.47.29.92.63,1.3,1.02.39.38.73.81.99,1.26.25.45.43.94.55,1.43l-17.37-.07Z"/>
    <path class="cls-1" d="m408.73,31.66l-14.94-.03-4.82,24.44c-.22,1.12-.26,2.29-.16,3.3.1,1.02.34,1.89.67,2.65.33.77.74,1.43,1.22,2.02.47.59,1.02,1.1,1.64,1.57.63.46,1.33.88,2.15,1.25.82.37,1.77.69,2.88.94,1.12.25,2.43.41,3.5.48,1.06.07,1.9.04,2.75-.05.86-.1,1.74-.25,2.65-.49,1.81-.46,3.79-1.27,5.72-2.53.96-.63,1.91-1.37,2.75-2.16.84-.8,1.59-1.66,2.25-2.58l-1.53,7.24,14.2-.09,6.49-35.92-15.07-.09-4.09,20.94c-.12.57-.32,1.14-.59,1.65-.27.52-.63.99-1.03,1.41-.4.41-.83.76-1.29,1.06-.46.29-.94.53-1.44.7-.49.18-1,.31-1.53.39-.54.08-1.1.1-1.6.1-.51-.01-.97-.06-1.37-.12-.39-.06-.73-.14-1.01-.22-.28-.08-.52-.18-.73-.27-.21-.1-.38-.19-.53-.3-.16-.1-.29-.21-.41-.32-.12-.1-.23-.23-.33-.35-.09-.12-.17-.26-.25-.4-.06-.14-.12-.31-.17-.48-.04-.18-.07-.37-.08-.6,0-.23.02-.49.07-.74l4.05-22.37h0Z"/>
  </g>
</svg>